<?xml version="1.0" standalone="no"?>
<!DOCTYPE svg PUBLIC "-//W3C//DTD SVG 20010904//EN"
 "http://www.w3.org/TR/2001/REC-SVG-20010904/DTD/svg10.dtd">
<svg version="1.0" xmlns="http://www.w3.org/2000/svg"
 width="840.000000pt" height="354.000000pt" viewBox="0 0 840.000000 354.000000"
 preserveAspectRatio="xMidYMid meet">

<g transform="translate(0.000000,354.000000) scale(0.100000,-0.100000)"
fill="#000000" stroke="none">
<path d="M2573 3119 c14 -8 17 -24 17 -84 0 -60 -3 -76 -17 -84 -29 -17 102
-13 142 4 61 25 73 98 26 146 -28 27 -34 29 -108 29 -58 -1 -73 -3 -60 -11z
m130 -31 c36 -42 11 -128 -39 -128 -23 0 -24 2 -24 81 0 79 0 80 23 74 12 -4
30 -16 40 -27z"/>
<path d="M2808 3118 c16 -16 16 -150 0 -166 -9 -9 0 -12 42 -12 42 1 51 3 38
11 -15 8 -18 24 -18 82 0 44 5 78 12 85 9 9 1 12 -37 12 -38 0 -46 -3 -37 -12z"/>
<path d="M2984 3120 c-55 -22 -71 -99 -31 -145 44 -52 157 -42 157 13 0 12 -5
10 -20 -6 -28 -30 -64 -28 -89 4 -42 53 -12 145 42 130 12 -3 25 -6 29 -6 4 0
10 -10 14 -22 7 -22 7 -22 15 -3 16 40 11 45 -43 44 -29 0 -63 -4 -74 -9z"/>
<path d="M3147 3123 c-4 -3 -7 -18 -6 -32 l0 -26 16 23 c8 12 24 22 34 22 17
0 19 -8 19 -71 0 -57 -4 -75 -17 -85 -16 -12 -10 -13 42 -13 46 0 56 2 43 10
-26 14 -27 159 -2 159 9 0 22 -7 29 -17 11 -14 13 -13 17 10 l5 27 -87 0 c-48
0 -90 -3 -93 -7z"/>
<path d="M3358 3118 c16 -16 16 -150 0 -166 -9 -9 0 -12 42 -12 48 1 53 2 38
14 -14 10 -18 28 -18 85 0 41 4 71 10 71 6 0 10 5 10 10 0 6 -21 10 -47 10
-37 0 -44 -3 -35 -12z"/>
<path d="M3528 3115 c-81 -46 -58 -157 35 -172 97 -15 164 83 104 152 -28 34
-98 43 -139 20z m91 -19 c18 -21 24 -77 12 -108 -15 -41 -65 -39 -86 2 -17 34
-19 73 -5 101 13 23 62 26 79 5z"/>
<path d="M3723 3119 c14 -8 17 -24 17 -81 0 -56 -4 -74 -17 -84 -16 -12 -13
-13 27 -13 40 0 43 1 27 13 -14 11 -17 25 -15 70 l3 56 53 -70 c34 -43 61 -70
73 -70 17 0 19 8 19 81 0 66 3 84 18 95 15 12 11 13 -31 14 -30 0 -46 -4 -42
-10 3 -5 13 -10 21 -10 10 0 14 -13 14 -52 l-1 -53 -49 55 c-27 30 -50 58 -50
63 0 4 -19 7 -42 7 -34 -1 -39 -3 -25 -11z"/>
<path d="M4005 3054 c-16 -42 -38 -85 -49 -95 -20 -19 -19 -19 22 -19 39 0 41
2 31 19 -18 28 -4 51 30 51 23 0 30 -5 33 -24 3 -14 0 -30 -5 -35 -8 -8 20
-11 94 -11 89 1 101 3 87 14 -19 14 -25 66 -8 66 5 0 16 -13 25 -30 18 -34 43
-50 80 -50 l26 0 -36 37 c-39 40 -43 54 -20 73 20 17 19 43 -3 63 -14 12 -37
17 -87 17 -65 0 -67 -1 -52 -18 22 -24 24 -134 3 -151 -25 -21 -46 1 -78 85
-41 108 -54 109 -93 8z m270 21 c0 -23 -5 -31 -22 -33 -20 -3 -23 1 -23 33 0
32 3 36 23 33 17 -2 22 -10 22 -33z m-225 -32 c0 -7 -7 -13 -15 -13 -16 0 -19
9 -9 35 5 13 8 14 15 3 5 -7 9 -19 9 -25z"/>
<path d="M4361 3117 c22 -17 69 -100 69 -122 0 -10 -7 -27 -17 -37 -15 -17
-14 -18 38 -18 47 1 52 2 37 14 -10 7 -18 26 -18 42 0 29 39 98 69 121 13 10
8 12 -28 13 -40 0 -43 -1 -27 -13 18 -13 18 -15 1 -40 -9 -15 -21 -27 -25 -27
-12 0 -33 57 -25 69 4 7 -11 11 -42 11 -40 -1 -45 -3 -32 -13z"/>
<path d="M4665 3054 c-16 -42 -38 -85 -49 -95 -20 -19 -19 -19 22 -19 39 0 41
2 31 19 -17 26 -4 51 26 51 17 0 28 -7 34 -22 5 -13 5 -24 0 -26 -26 -10 -2
-22 43 -22 51 0 51 0 32 19 -11 10 -33 53 -48 95 -37 100 -52 100 -91 0z m45
-11 c0 -7 -7 -13 -16 -13 -11 0 -14 5 -10 16 3 9 6 21 6 27 0 16 20 -14 20
-30z"/>
<path d="M4806 3108 c-8 -31 -7 -38 3 -38 5 0 11 9 14 20 3 12 14 20 26 20 19
0 21 -6 21 -75 0 -60 -3 -76 -17 -84 -14 -8 -4 -10 42 -10 46 0 56 2 43 10
-15 8 -18 24 -18 84 l0 75 50 0 50 0 0 -71 c0 -57 -4 -75 -17 -85 -16 -12 -10
-13 42 -13 52 0 58 1 43 13 -14 10 -18 28 -18 85 0 63 2 71 19 71 10 0 22 -8
26 -17 7 -17 8 -16 15 2 5 11 9 23 9 28 1 4 -73 7 -163 7 -161 0 -164 0 -170
-22z"/>
<path d="M5185 3054 c-16 -42 -38 -85 -49 -95 -20 -19 -19 -19 22 -19 39 0 41
2 31 19 -18 28 -4 51 30 51 23 0 30 -5 33 -24 3 -14 0 -30 -5 -35 -8 -8 5 -11
43 -11 53 0 54 0 33 19 -11 11 -33 53 -48 95 -36 100 -51 100 -90 0z m45 -11
c0 -7 -7 -13 -15 -13 -16 0 -19 9 -9 35 5 13 8 14 15 3 5 -7 9 -19 9 -25z"/>
<path d="M5404 3120 c-55 -22 -71 -99 -31 -145 44 -52 157 -42 157 13 0 12 -5
10 -20 -6 -28 -30 -64 -28 -89 4 -44 56 -12 144 47 129 15 -4 27 -7 28 -8 1
-1 6 -11 12 -22 9 -16 11 -17 12 -3 0 9 3 23 6 32 5 13 -3 16 -47 15 -30 0
-64 -4 -75 -9z"/>
<path d="M5563 3116 c13 -10 17 -28 17 -81 0 -53 -4 -71 -17 -81 -16 -12 -11
-13 37 -14 42 0 51 3 42 12 -7 7 -12 26 -12 43 l0 30 36 -42 c29 -35 42 -43
70 -43 l33 0 -44 45 c-25 24 -45 52 -45 61 0 9 16 32 36 50 l35 34 -43 -1
c-24 0 -37 -3 -30 -6 6 -2 12 -10 12 -17 0 -17 -38 -66 -51 -66 -13 0 -11 64
3 78 9 9 0 12 -42 12 -48 -1 -53 -2 -37 -14z"/>
<path d="M2625 2731 c-11 -5 -29 -19 -40 -31 -20 -22 -20 -38 -23 -909 -2
-636 1 -894 9 -913 6 -15 23 -35 38 -45 25 -17 94 -18 1349 -20 l1323 -3 47
-32 c26 -17 63 -44 82 -60 73 -58 186 -140 211 -153 14 -8 36 -11 47 -8 25 6
92 102 92 130 0 20 -36 58 -82 88 -16 9 -28 21 -28 25 0 4 28 10 63 12 73 6
100 20 122 63 14 27 16 122 13 917 l-3 888 -28 27 -27 28 -1573 2 c-864 1
-1581 -2 -1592 -6z m3045 -951 l0 -780 -138 0 -138 0 -189 140 c-235 174 -239
175 -317 57 -36 -54 -28 -79 46 -134 33 -25 65 -50 70 -55 6 -4 -502 -8 -1127
-8 l-1137 0 0 780 0 780 1465 0 1465 0 0 -780z m-316 -781 c193 -144 359 -270
369 -281 18 -22 23 -48 7 -48 -12 0 -774 568 -778 580 -2 6 8 10 23 10 20 0
123 -71 379 -261z"/>
<path d="M4133 2290 c-57 -12 -190 -74 -236 -111 l-38 -31 -23 21 c-27 26 -58
27 -79 3 -23 -25 -21 -67 4 -91 20 -18 20 -20 4 -45 l-17 -26 -294 0 c-189 0
-294 -4 -294 -10 0 -6 101 -10 284 -10 l285 0 -25 -72 c-14 -40 -28 -103 -31
-140 l-6 -68 -253 0 c-163 0 -254 -4 -254 -10 0 -6 90 -10 250 -10 138 0 250
-3 250 -7 2 -59 46 -185 108 -305 2 -5 -134 -8 -302 -8 -197 0 -306 -4 -306
-10 0 -6 111 -10 313 -10 l313 0 47 -49 c57 -59 121 -101 208 -138 60 -26 74
-28 204 -28 160 1 206 13 325 90 130 83 234 251 256 413 l7 52 208 0 209 0 0
135 c0 83 -4 135 -10 135 -6 0 -10 -48 -10 -125 l0 -125 -200 0 -200 0 -1 33
c-1 17 0 37 1 42 13 46 11 68 -8 88 -24 27 -52 81 -52 102 0 13 30 15 240 15
l240 0 0 135 c0 83 -4 135 -10 135 -6 0 -10 -48 -10 -125 l0 -125 -239 0 -239
0 -28 38 c-83 110 -108 132 -209 181 -55 27 -124 54 -153 60 -60 12 -167 13
-229 1z m248 -46 c86 -26 163 -69 228 -130 34 -31 61 -61 61 -66 0 -6 -28 16
-63 48 -210 197 -526 190 -728 -16 -114 -115 -173 -278 -153 -422 5 -38 6 -68
3 -68 -13 0 -22 109 -16 184 17 219 178 414 390 471 72 19 211 19 278 -1z
m-55 -75 c242 -44 414 -280 377 -520 -29 -187 -164 -336 -348 -384 -209 -54
-427 51 -524 254 -35 74 -36 79 -36 196 0 114 2 123 32 188 61 130 189 232
326 262 78 17 100 18 173 4z"/>
<path d="M4148 2133 c-22 -6 -22 -12 -2 -41 28 -41 104 -18 104 31 0 13 -9 17
-42 16 -24 -1 -51 -3 -60 -6z"/>
<path d="M4330 2117 c0 -24 37 -49 66 -45 44 5 39 25 -12 42 -57 19 -54 19
-54 3z"/>
<path d="M3925 2000 c-4 -7 105 -10 320 -10 215 0 324 3 320 10 -4 6 -122 10
-320 10 -198 0 -316 -4 -320 -10z"/>
<path d="M3951 1864 c-26 -33 -26 -49 -1 -74 24 -24 63 -26 84 -4 24 23 20 70
-6 88 -32 23 -54 20 -77 -10z"/>
<path d="M4150 1870 c-24 -24 -25 -48 -4 -78 30 -43 104 -17 104 36 0 28 -34
62 -60 62 -11 0 -29 -9 -40 -20z"/>
<path d="M4352 1874 c-45 -31 -17 -104 41 -104 27 0 57 32 57 60 0 20 -41 60
-61 60 -8 0 -25 -7 -37 -16z"/>
<path d="M4547 1872 c-9 -10 -17 -30 -17 -45 0 -61 82 -79 109 -23 12 25 11
31 -6 55 -25 32 -63 38 -86 13z"/>
<path d="M3832 1826 c-12 -42 -9 -57 9 -39 6 6 9 26 7 44 l-4 34 -12 -39z"/>
<path d="M3820 1700 c0 -7 150 -10 430 -10 280 0 430 3 430 10 0 7 -150 10
-430 10 -280 0 -430 -3 -430 -10z"/>
<path d="M3995 1360 c4 -6 98 -10 250 -10 152 0 246 4 250 10 4 7 -82 10 -250
10 -168 0 -254 -3 -250 -10z"/>
<path d="M3557 2172 c-37 -40 -9 -102 46 -102 27 0 57 32 57 60 0 23 -42 60
-67 60 -11 0 -27 -8 -36 -18z"/>
<path d="M4754 2182 c-13 -8 -34 -46 -34 -61 0 -20 40 -51 64 -51 32 0 56 25
56 59 0 45 -51 77 -86 53z"/>
<path d="M3557 1872 c-37 -40 -9 -102 46 -102 27 0 57 32 57 60 0 23 -42 60
-67 60 -11 0 -27 -8 -36 -18z"/>
<path d="M5230 1495 l0 -125 -207 0 c-138 0 -203 -4 -193 -10 8 -5 104 -10
218 -10 l202 0 0 135 c0 83 -4 135 -10 135 -6 0 -10 -48 -10 -125z"/>
</g>
</svg>
