<?xml version="1.0" standalone="no"?>
<!DOCTYPE svg PUBLIC "-//W3C//DTD SVG 20010904//EN"
 "http://www.w3.org/TR/2001/REC-SVG-20010904/DTD/svg10.dtd">
<svg version="1.0" xmlns="http://www.w3.org/2000/svg"
 width="840.000000pt" height="687.000000pt" viewBox="0 0 840.000000 687.000000"
 preserveAspectRatio="xMidYMid meet">

<g transform="translate(0.000000,687.000000) scale(0.100000,-0.100000)"
fill="#000000" stroke="none">
<path d="M4255 6430 c-60 -4 -129 -14 -153 -23 -23 -9 -46 -17 -50 -18 -19 -4
-63 -23 -122 -52 -67 -33 -174 -131 -191 -174 -5 -13 -15 -23 -22 -23 -8 0
-13 -10 -13 -22 1 -15 -4 -22 -13 -20 -9 2 -12 -4 -8 -18 3 -11 2 -18 -2 -16
-12 8 -44 -23 -38 -36 2 -8 -1 -22 -9 -33 -8 -10 -14 -26 -14 -36 0 -9 -7 -19
-15 -23 -8 -3 -15 -12 -15 -21 0 -8 -5 -14 -12 -12 -6 1 -18 -11 -27 -28 -9
-16 -19 -31 -23 -33 -5 -2 -8 -8 -8 -14 0 -6 -11 -26 -26 -45 -14 -18 -22 -33
-18 -33 4 0 0 -8 -9 -18 -10 -11 -14 -26 -10 -40 3 -12 1 -22 -5 -22 -16 0
-53 -57 -57 -86 -1 -13 -10 -33 -20 -44 -10 -11 -18 -33 -19 -49 -1 -16 -4
-27 -8 -25 -4 2 -9 -6 -13 -18 -3 -13 -10 -32 -14 -43 -16 -40 -31 -92 -31
-107 0 -9 -5 -18 -10 -20 -6 -2 -11 -20 -12 -41 -1 -20 -5 -37 -10 -37 -4 0
-8 -9 -8 -19 0 -11 -9 -41 -20 -67 -12 -26 -19 -53 -16 -60 3 -8 1 -16 -4 -19
-6 -4 -10 -17 -10 -29 0 -13 -6 -39 -14 -57 -7 -19 -22 -76 -31 -126 -10 -51
-22 -93 -26 -93 -5 0 -6 7 -3 15 4 8 3 15 0 15 -5 0 -75 -134 -75 -143 0 -1
-2 -9 -5 -17 -3 -8 -19 -53 -35 -100 -16 -47 -39 -112 -51 -145 -12 -33 -33
-102 -46 -152 -12 -51 -34 -130 -48 -175 -14 -46 -34 -112 -45 -148 -11 -36
-22 -74 -26 -85 -5 -14 -1 -12 11 6 11 15 31 39 46 54 15 15 46 64 69 108 23
45 49 91 59 102 36 40 165 240 165 255 0 8 6 14 13 12 8 -1 11 2 8 7 -4 5 3
26 14 45 11 20 32 72 46 117 21 65 31 83 52 92 15 6 29 14 32 17 3 3 12 6 20
8 8 2 0 -12 -19 -31 -18 -20 -31 -41 -29 -49 3 -7 -6 -33 -19 -57 -12 -24 -23
-46 -23 -48 0 -3 16 5 36 17 34 22 53 22 39 1 -3 -6 -12 -11 -18 -12 -18 -1
-91 -93 -78 -97 6 -2 -10 -24 -37 -48 -26 -24 -48 -49 -48 -54 -1 -6 -2 -15
-3 -21 0 -5 -5 -8 -10 -5 -10 6 -41 -36 -41 -56 0 -7 -16 -28 -35 -47 -32 -31
-48 -60 -26 -46 21 12 19 -13 -2 -36 -12 -13 -21 -27 -19 -31 1 -5 -5 -8 -14
-8 -10 0 -14 6 -10 15 3 8 1 15 -4 15 -6 0 -10 -7 -10 -16 0 -24 -29 -72 -80
-134 -26 -30 -56 -74 -68 -97 -22 -44 -56 -83 -70 -83 -5 0 -29 -43 -55 -95
-25 -52 -57 -101 -69 -109 -13 -8 -57 -24 -98 -37 -41 -12 -82 -28 -91 -36 -9
-7 -24 -11 -33 -7 -12 4 -16 1 -16 -15 0 -11 -9 -25 -21 -31 -16 -9 -25 -8
-40 6 -17 16 -24 13 -20 -9 1 -5 -7 -6 -17 -3 -11 4 -24 0 -32 -9 -7 -8 -16
-13 -20 -10 -5 3 -20 -6 -35 -19 -19 -18 -34 -23 -57 -19 -24 4 -30 2 -25 -10
4 -11 -10 -21 -53 -37 -62 -23 -69 -28 -221 -151 -82 -66 -118 -102 -224 -225
-36 -43 -85 -111 -108 -151 -12 -22 -47 -78 -78 -124 -31 -47 -60 -96 -64
-109 -9 -30 -35 -61 -45 -55 -4 3 -10 -9 -14 -26 -3 -17 -19 -51 -36 -75 -49
-73 -161 -311 -170 -362 -12 -70 -46 -221 -65 -288 -36 -129 -145 -614 -170
-756 -25 -146 -46 -307 -60 -455 l-7 -73 3382 0 3381 0 -5 43 c-3 23 -8 77
-12 120 -5 69 -7 76 -20 60 -12 -16 -13 -10 -12 47 0 36 5 76 10 90 10 27 17
230 7 225 -3 -2 -14 54 -24 126 -10 71 -22 132 -28 136 -5 3 -5 8 2 12 7 5 6
14 -3 32 -14 28 -27 71 -32 109 -1 14 -6 41 -10 60 -12 60 -19 103 -22 143 -1
9 -6 17 -11 17 -11 0 -22 -54 -12 -58 11 -4 4 -153 -8 -186 -8 -20 -8 -32 -1
-41 7 -9 6 -16 -5 -25 -13 -11 -15 8 -16 166 -2 318 -5 379 -17 407 -7 16 -12
32 -12 37 0 5 -6 13 -14 17 -14 9 -56 85 -56 103 0 21 -72 205 -106 273 -19
37 -62 105 -96 152 -34 46 -63 91 -64 100 -3 17 -51 85 -149 209 -113 142
-277 241 -527 317 -59 18 -105 35 -103 40 3 4 -2 9 -10 13 -8 3 -15 1 -15 -3
0 -5 -9 -7 -20 -4 -11 3 -18 9 -15 13 3 5 0 12 -6 16 -6 3 -15 1 -19 -6 -5 -8
-9 -7 -13 4 -4 9 -14 16 -22 16 -9 0 -13 -4 -10 -10 3 -5 0 -10 -7 -10 -11 0
-198 50 -205 54 -5 4 26 80 39 95 15 18 23 46 34 131 4 25 10 50 14 55 4 6 11
30 15 54 4 24 13 59 21 77 21 49 27 128 14 168 -13 39 -105 140 -120 131 -5
-3 -26 10 -45 30 -20 19 -40 33 -45 30 -5 -3 -24 4 -42 16 -18 12 -24 18 -13
14 11 -4 36 -9 56 -10 21 -2 55 -16 80 -34 65 -47 60 -27 -9 37 -34 31 -62 61
-62 66 0 5 7 3 15 -4 24 -20 19 13 -6 36 l-20 18 20 8 c24 9 28 40 6 58 -8 7
-15 22 -15 34 0 29 -21 86 -42 116 -10 13 -18 31 -18 38 0 8 -9 26 -20 42 -11
15 -17 30 -13 34 3 3 1 6 -5 6 -7 0 -12 8 -12 19 0 10 -10 38 -23 62 -13 24
-21 51 -20 59 3 13 -36 109 -66 160 -5 8 -28 53 -51 100 -23 47 -50 92 -60
101 -10 8 -21 30 -25 47 -3 18 -11 32 -15 32 -5 0 -7 -7 -4 -15 6 -15 -7 -21
-20 -8 -3 4 -15 7 -26 8 -15 1 -17 -1 -9 -12 14 -17 -3 -17 -20 0 -14 13 -13
7 8 -35 11 -22 12 -30 1 -43 -19 -23 -40 -18 -40 10 0 14 -6 36 -14 48 -16 25
-18 74 -4 83 5 3 2 16 -7 30 -8 13 -13 24 -11 24 3 0 1 14 -4 31 -8 25 -6 30
6 25 11 -4 12 -2 5 13 -6 10 -18 21 -26 25 -9 3 -14 2 -11 -3 7 -11 -16 -71
-27 -71 -5 0 -7 9 -4 20 3 11 1 20 -4 20 -5 0 -9 9 -9 20 0 11 -4 20 -10 20
-5 0 -10 15 -10 33 0 18 -6 39 -12 46 -8 9 -8 11 -2 8 20 -11 26 24 7 39 -11
9 -14 17 -8 21 15 12 13 63 -3 63 -8 0 -13 9 -12 23 4 43 0 55 -20 60 -15 4
-20 0 -20 -14 0 -16 -2 -18 -14 -7 -12 11 -12 17 0 40 8 15 13 33 12 40 -2 7
2 12 8 11 6 -1 11 4 11 12 0 7 -6 11 -14 8 -7 -3 -13 -9 -13 -14 0 -20 -2 -25
-17 -41 -15 -17 -33 -16 -33 2 0 5 7 7 16 3 12 -4 15 -2 12 8 -7 21 37 63 59
55 17 -6 17 -5 -1 9 -15 11 -23 12 -33 3 -7 -6 -16 -8 -20 -4 -3 3 -2 6 4 6
16 0 35 50 24 64 -6 7 -8 29 -6 50 4 28 0 42 -15 58 -22 24 -26 38 -10 38 6 0
10 5 10 10 0 6 -5 10 -12 10 -18 0 -47 31 -42 45 3 7 1 16 -5 20 -6 3 -11 17
-11 31 0 13 -4 24 -10 24 -5 0 -10 7 -10 15 0 9 -16 31 -36 50 -20 19 -32 35
-27 36 4 0 -2 4 -15 10 -13 5 -21 13 -18 18 13 20 -189 170 -264 196 -25 8
-69 35 -99 59 -44 36 -63 45 -110 51 -31 3 -63 7 -71 9 -8 1 -64 -1 -125 -4z
m-565 -395 c0 -9 -6 -12 -15 -9 -8 4 -15 10 -15 15 0 5 7 9 15 9 8 0 15 -7 15
-15z m-12 -44 c3 -8 -1 -12 -9 -9 -7 2 -15 10 -17 17 -3 8 1 12 9 9 7 -2 15
-10 17 -17z m1422 -261 c0 -5 -5 -10 -11 -10 -5 0 -7 5 -4 10 3 6 8 10 11 10
2 0 4 -4 4 -10z m-1605 -60 c3 -5 2 -10 -4 -10 -5 0 -13 5 -16 10 -3 6 -2 10
4 10 5 0 13 -4 16 -10z m33 -15 c-3 -3 -9 2 -12 12 -6 14 -5 15 5 6 7 -7 10
-15 7 -18z m-64 -31 c3 -8 2 -12 -4 -9 -6 3 -10 10 -10 16 0 14 7 11 14 -7z
m1703 -236 c-3 -7 -5 -2 -5 12 0 14 2 19 5 13 2 -7 2 -19 0 -25z m13 -187 c0
-5 -7 -11 -14 -14 -10 -4 -13 -1 -9 9 6 15 23 19 23 5z m-1876 -166 c-4 -8
-10 -12 -15 -9 -11 6 -2 24 11 24 5 0 7 -7 4 -15z m-29 -77 c-4 -29 -8 -74
-10 -99 -2 -26 -12 -68 -23 -95 -35 -86 -57 -149 -54 -158 4 -13 -19 -36 -30
-30 -6 4 -8 -2 -3 -15 4 -14 1 -23 -9 -27 -9 -3 -16 -12 -16 -20 0 -8 -6 -14
-12 -15 -9 0 -9 -2 -2 -5 9 -4 6 -20 -8 -57 -11 -29 -24 -68 -30 -87 -6 -19
-21 -54 -34 -76 -14 -23 -22 -49 -18 -58 3 -9 1 -16 -5 -16 -6 0 -20 -20 -32
-45 -23 -49 -37 -56 -18 -9 7 16 13 31 13 34 1 3 4 10 8 15 4 6 14 42 22 79 9
38 19 73 23 79 3 5 8 27 9 47 2 21 20 69 39 108 19 39 35 76 35 82 0 6 10 27
23 48 12 20 33 73 46 117 22 77 27 98 30 138 0 10 5 16 10 13 8 -5 21 25 26
59 2 15 16 45 21 45 3 0 2 -24 -1 -52z m213 -83 c-2 -26 -28 -44 -28 -20 0 8
5 15 10 15 6 0 9 3 9 8 -2 12 1 22 6 22 3 0 4 -11 3 -25z m8 -74 c-1 -37 -16
-73 -16 -38 0 10 -5 17 -10 17 -7 0 -7 -7 0 -20 8 -16 7 -24 -4 -36 -9 -8 -21
-23 -29 -32 -7 -9 -27 -30 -45 -46 -27 -25 -34 -28 -45 -16 -8 8 -8 11 0 6 13
-7 43 19 43 39 0 7 11 16 24 19 23 6 36 31 42 83 2 16 31 63 39 63 1 0 1 -18
1 -39z m-381 -147 c-11 -38 -20 -53 -26 -47 -7 7 -3 27 13 61 13 27 25 49 26
47 2 -2 -4 -29 -13 -61z m-31 -79 c-7 -16 -24 -21 -24 -6 0 8 7 13 27 20 1 1
0 -6 -3 -14z m236 -19 c0 -3 -4 -8 -10 -11 -5 -3 -10 -1 -10 4 0 6 5 11 10 11
6 0 10 -2 10 -4z m2320 -368 c0 -5 -7 -3 -15 6 -8 8 -15 18 -15 22 0 3 7 1 15
-6 8 -7 15 -17 15 -22z m124 -57 c-2 -3 -12 3 -22 13 -16 17 -16 18 5 5 12 -7
20 -15 17 -18z m-2680 -46 c-15 -23 -34 -33 -34 -18 0 10 32 43 42 43 5 0 1
-11 -8 -25z m-161 -35 c-3 -11 -9 -20 -15 -20 -5 0 -4 9 2 20 6 11 12 20 14
20 2 0 2 -9 -1 -20z m2755 -7 c32 -19 41 -29 30 -31 -16 -3 -59 19 -86 45 -23
23 7 15 56 -14z m-2768 -27 c0 -3 -4 -8 -10 -11 -5 -3 -10 -1 -10 4 0 6 5 11
10 11 6 0 10 -2 10 -4z m-213 -488 c-3 -8 -6 -5 -6 6 -1 11 2 17 5 13 3 -3 4
-12 1 -19z m-17 -62 c0 -8 -9 -18 -20 -21 -11 -4 -18 -9 -16 -13 2 -4 -6 -8
-17 -8 -12 -1 -33 -4 -46 -8 -128 -31 -162 -38 -167 -33 -3 3 21 13 53 22 32
9 92 29 133 45 41 16 76 29 78 29 1 1 2 -5 2 -13z m4121 -670 c22 -33 39 -65
39 -70 0 -6 -6 -2 -12 9 -16 29 -18 31 -27 17 -5 -8 -12 -6 -24 8 -9 11 -13
20 -7 20 18 0 -12 60 -43 86 l-32 26 34 -19 c18 -10 51 -45 72 -77z m59 -100
c0 -6 9 -17 20 -24 11 -7 20 -19 20 -28 0 -9 5 -12 12 -8 7 4 8 3 4 -5 -4 -6
-2 -19 6 -28 9 -12 9 -15 1 -9 -9 4 -13 1 -13 -9 0 -11 5 -15 15 -11 14 5 20
-5 16 -27 -1 -4 8 -28 20 -53 11 -25 18 -49 14 -52 -3 -3 -8 4 -12 16 -3 12
-9 22 -14 22 -5 0 -9 7 -9 15 0 9 -7 18 -15 21 -8 4 -15 16 -15 28 0 18 -11
36 -60 94 -8 9 -6 12 7 13 17 1 17 2 0 6 -12 3 -16 10 -13 20 4 10 2 13 -8 10
-8 -3 -19 0 -24 6 -8 9 -2 12 19 13 16 1 29 -4 29 -10z m-5134 -44 c-25 -41
-76 -113 -76 -107 0 17 65 115 76 115 3 0 3 -4 0 -8z m-194 -144 c-7 -7 -12
-8 -12 -2 0 6 3 14 7 17 3 4 9 5 12 2 2 -3 -1 -11 -7 -17z m-5 -40 c-3 -8 -6
-5 -6 6 -1 11 2 17 5 13 3 -3 4 -12 1 -19z m33 -99 c-16 -35 -30 -58 -30 -52
0 15 52 124 57 119 2 -2 -10 -32 -27 -67z m51 -46 c-12 -20 -14 -14 -5 12 4 9
9 14 11 11 3 -2 0 -13 -6 -23z m-54 -125 c-3 -8 -6 -5 -6 6 -1 11 2 17 5 13 3
-3 4 -12 1 -19z m5815 -954 c-6 -35 -12 -29 -12 14 0 23 3 32 9 24 4 -7 6 -24
3 -38z"/>
<path d="M5076 5920 c20 -32 29 -33 20 -2 -4 11 -14 23 -22 26 -12 5 -12 1 2
-24z"/>
<path d="M5150 5799 c0 -5 5 -7 10 -4 6 3 10 8 10 11 0 2 -4 4 -10 4 -5 0 -10
-5 -10 -11z"/>
<path d="M5144 5753 c3 -8 6 -19 6 -23 0 -5 8 -14 18 -19 16 -9 18 -6 14 19
-2 17 -11 30 -24 33 -14 4 -18 2 -14 -10z"/>
<path d="M5150 5689 c0 -5 5 -7 10 -4 6 3 10 8 10 11 0 2 -4 4 -10 4 -5 0 -10
-5 -10 -11z"/>
<path d="M5215 5640 c3 -5 8 -10 11 -10 2 0 4 5 4 10 0 6 -5 10 -11 10 -5 0
-7 -4 -4 -10z"/>
<path d="M5230 5594 c1 -13 29 -48 34 -43 2 2 -4 15 -15 28 -10 13 -19 19 -19
15z"/>
<path d="M5280 5516 c0 -8 7 -16 15 -20 13 -4 14 -2 5 14 -13 23 -20 26 -20 6z"/>
<path d="M2335 3380 c4 -6 11 -8 16 -5 14 9 11 15 -7 15 -8 0 -12 -5 -9 -10z"/>
<path d="M5905 3230 c3 -5 8 -10 11 -10 2 0 4 5 4 10 0 6 -5 10 -11 10 -5 0
-7 -4 -4 -10z"/>
<path d="M7383 1665 c0 -14 3 -28 8 -31 5 -3 9 9 9 25 0 17 -4 31 -9 31 -5 0
-8 -11 -8 -25z"/>
<path d="M7470 1339 c0 -5 5 -7 10 -4 6 3 10 8 10 11 0 2 -4 4 -10 4 -5 0 -10
-5 -10 -11z"/>
<path d="M7533 715 c0 -22 2 -30 4 -17 2 12 2 30 0 40 -3 9 -5 -1 -4 -23z"/>
</g>
</svg>
