<?xml version="1.0" standalone="no"?>
<!DOCTYPE svg PUBLIC "-//W3C//DTD SVG 20010904//EN"
 "http://www.w3.org/TR/2001/REC-SVG-20010904/DTD/svg10.dtd">
<svg version="1.0" xmlns="http://www.w3.org/2000/svg"
 width="300.000000pt" height="320.000000pt" viewBox="0 0 300.000000 320.000000"
 preserveAspectRatio="xMidYMid meet">

<g transform="translate(0.000000,320.000000) scale(0.100000,-0.100000)"
fill="#000000" stroke="none">
<path d="M1640 2987 c-646 -372 -1257 -723 -1371 -789 -139 -79 -124 11 -127
-744 -1 -360 0 -654 3 -654 3 0 66 35 140 77 110 64 134 82 137 103 3 27 -31
6 622 381 181 104 330 189 332 189 1 0 10 -24 20 -52 9 -29 30 -79 46 -112 16
-32 27 -67 25 -77 -4 -13 4 -24 24 -36 36 -21 37 -38 3 -60 l-26 -17 33 -17
c25 -12 39 -14 55 -7 18 8 29 6 52 -11 46 -32 114 -61 146 -61 33 0 141 57
172 92 51 55 59 86 59 218 0 96 -4 138 -19 180 -24 70 -81 186 -112 227 l-24
31 -2 609 c-3 599 -3 608 -23 611 -11 1 -85 -35 -165 -81z m154 -1479 c37 -75
33 -126 -6 -80 -25 28 -48 79 -48 107 0 42 26 29 54 -27z"/>
<path d="M1127 1224 c-32 -18 -26 -34 22 -53 24 -10 33 -9 64 9 44 26 45 33
12 48 -34 16 -64 14 -98 -4z"/>
<path d="M1437 1079 c-42 -22 -42 -31 4 -49 27 -12 36 -11 65 5 42 22 42 30 4
50 -35 18 -27 19 -73 -6z"/>
<path d="M2865 1071 c-6 -5 -31 -20 -57 -34 -48 -26 -163 -93 -493 -284 -490
-284 -886 -510 -944 -540 -79 -41 -141 -44 -210 -9 -41 20 -190 105 -678 387
-45 26 -84 42 -85 37 -3 -7 -17 -4 -37 6 -20 11 -31 23 -27 31 5 15 -27 31
-56 26 -23 -3 -70 29 -64 44 2 7 -11 19 -30 28 l-34 17 0 -28 c0 -25 11 -35
98 -84 152 -88 458 -263 682 -393 113 -65 222 -127 242 -137 56 -27 126 -23
189 10 63 34 64 34 330 187 112 65 224 129 249 143 25 13 50 28 55 32 8 6 443
257 590 340 159 90 279 161 291 171 8 6 14 22 14 35 0 25 -9 30 -25 15z m-4
-44 c-13 -13 -26 -3 -16 12 3 6 11 8 17 5 6 -4 6 -10 -1 -17z m-1291 -737 c0
-11 -33 -30 -52 -30 -7 1 -3 9 11 20 25 22 41 26 41 10z m-120 -75 c-13 -16
-40 -21 -40 -7 0 10 42 32 49 26 2 -2 -2 -10 -9 -19z"/>
<path d="M867 961 c-41 -27 -41 -28 -8 -45 38 -20 39 -20 80 5 l34 20 -32 20
c-37 23 -38 23 -74 0z"/>
<path d="M1223 965 c-41 -17 -41 -26 -4 -48 37 -22 42 -21 86 4 30 18 34 24
23 35 -21 21 -70 25 -105 9z"/>
<path d="M983 923 c-18 -9 -33 -19 -33 -23 0 -3 13 -14 30 -23 28 -17 31 -17
71 3 l42 22 -32 19 c-37 22 -37 22 -78 2z"/>
<path d="M768 802 c-36 -22 -35 -29 5 -48 31 -15 35 -15 70 6 20 12 37 24 37
26 0 7 -59 34 -72 33 -7 0 -25 -8 -40 -17z"/>
</g>
</svg>
