<?xml version="1.0" standalone="no"?>
<!DOCTYPE svg PUBLIC "-//W3C//DTD SVG 20010904//EN"
 "http://www.w3.org/TR/2001/REC-SVG-20010904/DTD/svg10.dtd">
<svg version="1.0" xmlns="http://www.w3.org/2000/svg"
 width="235.000000pt" height="214.000000pt" viewBox="0 0 235.000000 214.000000"
 preserveAspectRatio="xMidYMid meet">

<g transform="translate(0.000000,214.000000) scale(0.100000,-0.100000)"
fill="#000000" stroke="none">
<path d="M1900 1890 c31 -4 64 -12 75 -18 36 -19 75 -68 96 -118 17 -42 19
-44 13 -14 -11 62 -36 102 -83 131 -37 24 -55 29 -100 28 l-56 -2 55 -7z"/>
<path d="M934 1716 c0 -43 4 -73 9 -69 5 3 6 29 2 60 -5 39 -4 53 4 48 6 -3 9
-11 6 -16 -3 -5 0 -6 8 -3 8 3 18 0 23 -7 5 -8 3 -10 -7 -5 -8 4 -3 -2 11 -14
14 -12 19 -18 11 -14 -9 4 -12 3 -7 -4 4 -6 13 -9 21 -5 11 4 13 1 9 -11 -5
-12 -2 -15 10 -10 9 3 16 1 16 -5 0 -6 -5 -11 -11 -11 -6 0 -4 -7 5 -15 13
-14 46 -11 46 3 0 8 -143 152 -151 152 -3 0 -6 -34 -5 -74z"/>
<path d="M1910 1762 c20 -10 37 -27 41 -42 l7 -25 1 27 c1 30 -30 58 -64 58
-15 0 -11 -5 15 -18z"/>
<path d="M1428 1743 c7 -3 16 -2 19 1 4 3 -2 6 -13 5 -11 0 -14 -3 -6 -6z"/>
<path d="M1378 1733 c6 -2 18 -2 25 0 6 3 1 5 -13 5 -14 0 -19 -2 -12 -5z"/>
<path d="M1318 1708 c5 -5 16 -8 23 -6 8 3 3 7 -10 11 -17 4 -21 3 -13 -5z"/>
<path d="M1375 1710 c-13 -5 -14 -9 -5 -9 8 0 24 4 35 9 13 5 14 9 5 9 -8 0
-24 -4 -35 -9z"/>
<path d="M1637 1713 c-4 -3 -7 -11 -7 -17 0 -6 5 -5 12 2 6 6 9 14 7 17 -3 3
-9 2 -12 -2z"/>
<path d="M1873 1708 c1 -7 -3 -12 -10 -11 -8 2 -10 -4 -6 -14 6 -15 7 -15 18
0 7 9 16 13 21 9 4 -4 2 1 -5 11 -16 20 -22 22 -18 5z"/>
<path d="M1720 1684 c0 -8 5 -12 10 -9 6 4 8 11 5 16 -9 14 -15 11 -15 -7z"/>
<path d="M1750 1688 c0 -4 4 -8 9 -8 5 0 14 -13 21 -30 7 -16 15 -30 19 -30
10 0 63 -52 58 -57 -3 -2 -13 0 -24 5 -10 6 -33 16 -50 22 -19 7 -33 20 -33
29 -1 14 -2 14 -11 -2 -6 -9 -14 -15 -20 -12 -5 4 -9 2 -9 -3 0 -13 34 -42 49
-42 7 0 10 -4 7 -8 -2 -4 4 -8 14 -9 13 -1 17 3 13 13 -3 10 2 14 18 14 19 0
21 -2 9 -10 -12 -8 -10 -10 10 -10 14 0 37 8 53 18 l27 19 -39 12 c-39 11 -91
60 -91 85 0 7 -7 13 -15 13 -8 0 -15 -4 -15 -9z m9 -104 c4 3 13 0 21 -5 11
-7 9 -8 -9 -6 -14 2 -26 9 -27 16 -1 6 0 7 3 1 2 -5 8 -8 12 -6z"/>
<path d="M839 1676 c4 -6 11 -18 14 -26 3 -8 5 -3 4 11 -1 14 -7 26 -14 26 -8
0 -9 -5 -4 -11z"/>
<path d="M1236 1675 c-11 -8 -16 -15 -10 -15 5 0 18 7 28 15 11 8 16 15 10 15
-5 0 -18 -7 -28 -15z"/>
<path d="M1330 1673 c-14 -3 -29 -9 -35 -15 -11 -11 40 -1 65 13 16 9 11 9
-30 2z"/>
<path d="M1398 1600 c-43 -43 -78 -82 -78 -86 0 -11 138 125 151 149 5 9 8 17
7 16 -2 0 -38 -35 -80 -79z"/>
<path d="M1623 1663 c2 -12 6 -26 10 -29 11 -11 8 19 -3 36 -8 12 -9 10 -7 -7z"/>
<path d="M1640 1673 c0 -5 5 -15 10 -23 8 -12 10 -11 10 8 0 12 -4 22 -10 22
-5 0 -10 -3 -10 -7z"/>
<path d="M1880 1670 c0 -5 7 -10 16 -10 8 0 12 5 9 10 -3 6 -10 10 -16 10 -5
0 -9 -4 -9 -10z"/>
<path d="M1735 1661 c-3 -5 -1 -12 4 -15 5 -3 11 1 15 9 6 16 -9 21 -19 6z"/>
<path d="M1253 1654 c4 -4 -1 -13 -11 -21 -15 -12 -14 -13 8 -2 33 16 33 16
13 23 -9 4 -14 4 -10 0z"/>
<path d="M1590 1643 c0 -26 16 -48 24 -34 4 6 3 11 -3 11 -6 0 -8 6 -5 14 3 8
1 17 -5 21 -6 3 -11 -2 -11 -12z"/>
<path d="M2005 1640 c-3 -11 -11 -20 -16 -20 -15 0 -28 -44 -15 -52 7 -5 5 -8
-6 -8 -10 0 -18 -5 -18 -11 0 -6 14 -3 33 8 27 16 32 25 33 61 2 46 -1 53 -11
22z m5 -40 c0 -11 -7 -20 -15 -20 -16 0 -16 20 0 32 14 11 15 10 15 -12z"/>
<path d="M815 1641 c-3 -6 -15 -8 -26 -6 -27 5 -122 -82 -114 -103 4 -11 2
-12 -8 -4 -10 8 -16 6 -27 -11 -8 -12 -13 -28 -11 -36 1 -7 -2 -10 -8 -7 -5 4
-12 2 -16 -4 -4 -6 -12 -7 -18 -4 -7 4 -9 4 -6 0 6 -6 -56 -69 -139 -141 -18
-16 -30 -35 -27 -42 2 -8 1 -12 -4 -9 -4 3 -19 -5 -32 -17 l-24 -22 29 -3 c25
-3 43 11 142 109 62 62 111 115 109 118 -3 2 5 9 18 16 12 6 21 17 20 23 -2 6
7 17 20 23 23 12 145 129 134 129 -3 0 -8 -4 -12 -9z m-50 -41 c-10 -11 -25
-20 -33 -20 -12 0 -12 3 3 20 10 11 22 17 26 14 5 -3 9 0 9 7 0 7 3 9 7 6 3
-4 -2 -16 -12 -27z m-35 -42 c0 -4 -7 -8 -15 -8 -8 0 -15 -4 -15 -10 0 -5 -5
-10 -10 -10 -6 0 -6 7 1 18 12 19 39 26 39 10z m-67 -58 c-3 -11 -9 -20 -15
-20 -5 0 -4 9 2 20 6 11 12 20 14 20 2 0 2 -9 -1 -20z"/>
<path d="M1158 1610 c-31 -29 -36 -39 -25 -50 10 -10 9 -12 -4 -7 -11 3 -26
-4 -40 -20 -13 -15 -17 -23 -9 -19 8 4 6 0 -4 -8 -11 -9 -17 -19 -13 -22 3 -4
0 -13 -8 -21 -8 -8 -15 -26 -15 -41 0 -25 2 -23 19 13 18 40 125 167 134 159
2 -2 9 1 15 8 7 9 7 18 -1 29 -11 13 -17 11 -49 -21z m46 -1 c-3 -5 -10 -7
-15 -3 -5 3 -7 10 -3 15 3 5 10 7 15 3 5 -3 7 -10 3 -15z m-45 -35 c-15 -18
-22 -13 -13 10 3 9 10 13 16 10 5 -3 4 -12 -3 -20z m-39 -28 c0 -2 -8 -10 -17
-17 -16 -13 -17 -12 -4 4 13 16 21 21 21 13z"/>
<path d="M920 1578 c0 -32 4 -58 10 -58 13 0 13 80 0 100 -7 11 -10 -2 -10
-42z"/>
<path d="M843 1540 c0 -25 2 -35 4 -22 2 12 2 32 0 45 -2 12 -4 2 -4 -23z"/>
<path d="M711 1488 c-1 -25 3 -28 29 -28 19 0 30 -5 30 -14 0 -13 20 -26 41
-26 5 0 9 12 9 26 0 18 -5 25 -17 23 -57 -5 -82 1 -86 24 -4 19 -4 18 -6 -5z"/>
<path d="M910 1459 c0 -22 -7 -122 -16 -222 -8 -99 -13 -196 -9 -214 8 -44 79
-118 126 -131 25 -7 136 -1 395 19 197 16 366 28 374 29 8 0 -104 119 -249
264 -146 146 -268 263 -273 260 -4 -3 -13 -14 -19 -26 -6 -11 -7 -18 -1 -14 5
3 17 -3 27 -14 10 -11 22 -17 28 -13 5 3 7 1 4 -4 -8 -13 27 -45 39 -36 5 5 5
4 1 -1 -10 -13 143 -167 157 -159 6 3 7 2 3 -2 -4 -5 45 -62 109 -126 l117
-117 -34 -6 c-78 -12 -605 -48 -645 -43 -57 6 -87 27 -120 82 l-26 45 16 213
c19 249 19 257 6 257 -5 0 -10 -18 -10 -41z m365 -29 c10 -11 16 -20 13 -20
-3 0 -13 9 -23 20 -10 11 -16 20 -13 20 3 0 13 -9 23 -20z"/>
<path d="M1635 1388 l-100 -103 103 100 c95 93 107 105 99 105 -1 0 -47 -46
-102 -102z"/>
<path d="M1809 1454 c-21 -22 -11 -43 13 -28 6 4 23 8 38 9 14 1 39 9 55 18
l29 15 -57 3 c-49 3 -61 1 -78 -17z m40 3 c-2 -1 -13 -9 -24 -17 -19 -14 -19
-14 -6 3 7 9 18 17 24 17 6 0 8 -1 6 -3z"/>
<path d="M833 1415 c0 -22 2 -30 4 -17 2 12 2 30 0 40 -3 9 -5 -1 -4 -23z"/>
<path d="M965 1355 c3 -67 29 -155 46 -155 5 0 -1 21 -13 48 -11 26 -24 76
-29 112 l-8 65 4 -70z"/>
<path d="M701 1362 c-1 -17 6 -24 29 -28 17 -4 30 -9 30 -13 0 -3 11 -7 25 -7
20 -2 25 3 25 22 0 15 -6 24 -15 24 -8 0 -15 -4 -15 -10 0 -5 -14 -10 -30 -10
-22 0 -33 6 -40 23 l-9 22 0 -23z"/>
<path d="M1153 1308 c-21 -19 -57 -49 -80 -67 -24 -18 -43 -37 -43 -42 0 -6
35 18 78 52 100 81 97 78 90 85 -4 3 -23 -10 -45 -28z"/>
<path d="M823 1285 c0 -22 2 -30 4 -17 2 12 2 30 0 40 -3 9 -5 -1 -4 -23z"/>
<path d="M691 1233 c-1 -19 5 -22 54 -25 51 -3 55 -2 55 20 0 13 -6 22 -15 22
-8 0 -15 -7 -15 -15 0 -23 -67 -20 -73 3 -4 13 -5 12 -6 -5z"/>
<path d="M207 1213 c-7 -11 993 -1006 1002 -998 3 3 -220 231 -496 507 -275
275 -503 496 -506 491z"/>
<path d="M812 1165 c0 -16 2 -22 5 -12 2 9 2 23 0 30 -3 6 -5 -1 -5 -18z"/>
<path d="M376 1149 c9 -10 21 -16 27 -12 5 3 7 2 4 -4 -3 -5 165 -180 374
-389 208 -208 379 -374 379 -369 0 6 -15 80 -34 165 -18 85 -39 183 -46 218
-12 60 -14 62 -44 62 -46 0 -131 46 -164 88 -16 20 -35 55 -43 77 -19 57 -29
65 -18 14 11 -49 36 -94 71 -126 32 -30 107 -63 145 -63 30 0 32 -2 43 -57 7
-32 23 -107 36 -168 12 -60 21 -111 19 -113 -1 -2 -149 144 -328 325 -179 180
-325 329 -323 330 5 6 300 -58 320 -68 14 -8 17 -7 14 2 -3 8 -31 19 -64 26
-32 6 -132 27 -222 46 -143 30 -160 32 -146 16z"/>
<path d="M1510 1015 c0 -18 5 -25 20 -25 11 0 20 -4 20 -10 0 -5 12 -9 28 -9
23 2 24 2 5 6 -18 3 -23 11 -23 34 0 24 -4 29 -25 29 -20 0 -25 -5 -25 -25z"/>
<path d="M1051 963 c-1 -30 2 -33 27 -32 22 1 23 2 5 6 -14 3 -23 13 -26 31
-4 24 -4 24 -6 -5z"/>
<path d="M1403 963 c15 -2 39 -2 55 0 15 2 2 4 -28 4 -30 0 -43 -2 -27 -4z"/>
<path d="M1268 953 c17 -2 47 -2 65 0 17 2 3 4 -33 4 -36 0 -50 -2 -32 -4z"/>
<path d="M1148 943 c18 -2 45 -2 60 0 15 2 0 4 -33 4 -33 0 -45 -2 -27 -4z"/>
<path d="M1620 860 l-65 -7 55 -1 55 -2 -220 -220 c-193 -193 -220 -224 -217
-248 2 -15 6 -29 8 -31 2 -2 115 109 251 247 137 138 259 256 273 261 21 8 17
10 -25 9 -27 -1 -79 -4 -115 -8z"/>
<path d="M1458 843 c17 -2 47 -2 65 0 17 2 3 4 -33 4 -36 0 -50 -2 -32 -4z"/>
<path d="M1328 833 c18 -2 45 -2 60 0 15 2 0 4 -33 4 -33 0 -45 -2 -27 -4z"/>
<path d="M884 819 c-3 -6 0 -17 8 -25 13 -13 16 -13 27 0 10 12 9 17 -8 25
-14 8 -22 8 -27 0z"/>
<path d="M1162 822 c-7 -5 16 -7 50 -4 85 5 96 10 23 11 -33 0 -66 -3 -73 -7z"/>
<path d="M954 738 c-10 -13 -15 -20 -10 -15 5 4 17 0 27 -9 21 -19 34 -3 19
26 -13 25 -13 25 -36 -2z"/>
<path d="M1030 661 c-5 -11 -10 -22 -10 -25 0 -4 46 -2 58 3 7 3 -20 41 -28
41 -5 0 -14 -9 -20 -19z"/>
</g>
</svg>
