<?xml version="1.0" standalone="no"?>
<!DOCTYPE svg PUBLIC "-//W3C//DTD SVG 20010904//EN"
 "http://www.w3.org/TR/2001/REC-SVG-20010904/DTD/svg10.dtd">
<svg version="1.0" xmlns="http://www.w3.org/2000/svg"
 width="800.000000pt" height="800.000000pt" viewBox="0 0 800.000000 800.000000"
 preserveAspectRatio="xMidYMid meet">
<g transform="translate(0.000000,800.000000) scale(0.100000,-0.100000)"
fill="#000000" stroke="none">
<path d="M1874 6626 c-118 -29 -220 -124 -255 -236 -19 -64 -19 -94 -17 -1745
l3 -1680 29 -59 c37 -76 101 -140 174 -174 l57 -27 473 -3 c451 -3 473 -2 468
15 -23 76 -38 165 -43 265 l-6 118 -90 0 -91 0 150 153 c162 164 188 203 207
311 10 61 0 137 -29 210 -6 16 -4 18 12 13 59 -18 58 -18 89 25 16 24 46 61
66 83 l36 40 2 102 c1 95 0 103 -21 117 -29 20 -97 21 -126 0 -21 -15 -22 -14
-22 13 0 38 44 105 114 173 l56 54 0 136 0 135 -169 -169 c-141 -141 -175
-180 -197 -230 -38 -84 -43 -171 -15 -255 12 -35 21 -65 19 -67 -2 -1 -30 6
-63 17 -82 28 -178 22 -261 -15 -49 -22 -87 -54 -210 -177 -82 -82 -152 -149
-156 -149 -5 0 -8 473 -8 1050 0 578 1 1050 3 1050 1 0 70 -67 152 -148 179
-178 222 -203 349 -210 65 -3 92 0 135 17 30 11 56 19 58 17 2 -2 -5 -31 -17
-65 -11 -33 -20 -80 -20 -104 0 -56 25 -152 52 -196 22 -36 326 -351 339 -351
3 0 9 57 11 128 l5 127 -72 75 c-77 79 -105 123 -105 163 l0 24 40 -19 c49
-24 81 -18 121 22 34 33 39 91 13 128 -9 13 -13 26 -10 29 11 12 87 -18 120
-47 l34 -30 16 25 c9 13 37 48 63 77 l46 52 -48 44 c-80 72 -136 95 -240 100
-74 3 -100 0 -144 -16 l-53 -21 7 22 c31 98 38 154 28 214 -19 107 -45 146
-207 311 l-150 152 1424 0 1424 0 -147 -149 c-225 -227 -248 -296 -181 -528
l6 -22 -53 21 c-44 16 -70 19 -144 16 -104 -5 -160 -28 -240 -100 l-48 -44 46
-52 c26 -29 54 -64 63 -77 l16 -25 34 30 c31 27 110 58 121 47 2 -3 -3 -17
-12 -31 -21 -32 -15 -98 10 -126 38 -42 107 -47 148 -12 16 14 17 13 17 -11 0
-47 -20 -79 -97 -158 l-77 -79 3 -273 2 -272 69 -70 c73 -75 100 -118 100
-160 0 -25 -1 -25 -22 -11 -29 20 -97 20 -126 0 -19 -13 -22 -24 -22 -83 0
-39 5 -72 12 -79 9 -9 9 -12 0 -12 -23 0 -12 -47 19 -76 17 -16 47 -51 67 -79
20 -27 37 -52 39 -54 1 -2 16 2 33 9 40 17 46 9 27 -37 -35 -89 -29 -200 15
-293 14 -28 77 -101 172 -197 l150 -153 -92 0 -92 0 0 -87 c0 -76 -23 -223
-45 -292 l-7 -22 474 3 473 3 67 33 c77 38 130 92 167 171 l26 56 3 1680 c2
1658 2 1681 -18 1746 -34 114 -136 207 -259 235 -80 19 -4169 19 -4247 0z
m424 -405 c47 -25 387 -367 401 -404 6 -16 11 -40 11 -54 l0 -26 -22 21 c-37
33 -76 44 -114 32 -73 -24 -98 -110 -49 -168 14 -17 25 -33 25 -36 0 -10 -64
6 -95 25 -46 28 -372 360 -384 392 -24 62 -7 152 35 189 57 50 129 61 192 29z
m3548 3 c74 -35 114 -119 93 -196 -9 -36 -39 -72 -187 -221 -183 -184 -215
-210 -269 -220 -40 -8 -40 -4 -8 35 49 58 24 144 -49 168 -38 12 -77 1 -113
-32 l-23 -21 0 24 c1 54 41 107 211 275 96 95 188 179 204 188 39 20 98 20
141 0z m104 -1554 c0 -577 -1 -1050 -2 -1050 -2 0 -71 67 -153 148 -189 186
-224 207 -365 206 -68 0 -106 -5 -134 -17 -22 -10 -40 -16 -42 -14 -2 1 6 31
16 66 25 80 25 142 0 222 -23 76 -55 116 -233 297 -73 73 -134 135 -136 138
-3 2 67 77 155 167 171 173 193 201 218 286 21 73 20 136 -4 212 -10 35 -18
64 -17 65 1 2 29 -7 62 -18 46 -16 77 -19 136 -16 123 7 168 34 339 208 80 81
148 147 153 148 4 1 7 -470 7 -1048z m-3425 -952 c-23 -27 -26 -39 -22 -76 7
-62 43 -97 100 -97 29 0 52 7 71 23 16 12 31 20 34 18 2 -3 1 -22 -3 -43 -6
-32 -36 -67 -198 -230 -204 -206 -223 -219 -304 -210 -108 12 -173 127 -132
234 13 35 319 346 378 384 25 16 58 29 74 29 l29 0 -27 -32z m3026 3 c24 -15
119 -104 210 -197 145 -148 167 -175 177 -215 34 -136 -102 -250 -231 -195
-18 7 -116 99 -218 202 -159 161 -187 195 -193 228 -9 49 -2 55 30 25 19 -18
37 -24 71 -24 38 0 49 5 74 33 39 43 40 98 3 141 l-26 31 29 0 c16 0 49 -13
74 -29z"/>
<path d="M3817 5519 c-210 -51 -400 -207 -493 -404 -66 -139 -67 -151 -72
-573 l-3 -384 43 27 c39 24 183 95 251 123 l27 12 0 258 c0 199 3 271 15 317
68 259 353 398 589 287 79 -37 162 -113 201 -183 52 -96 55 -123 55 -533 0
-356 -1 -378 -17 -373 -10 3 -44 15 -76 26 -146 51 -375 66 -535 36 -421 -80
-754 -387 -869 -800 -31 -112 -42 -328 -24 -456 26 -177 112 -373 227 -518
374 -467 1049 -554 1526 -196 352 264 513 709 413 1141 -41 178 -147 373 -274
503 l-50 51 -3 528 c-3 522 -4 528 -27 597 -52 154 -133 276 -246 368 -76 61
-219 131 -312 151 -98 22 -248 20 -346 -5z m291 -1875 c56 -23 106 -69 138
-126 25 -46 29 -63 29 -133 0 -97 -19 -138 -94 -208 -28 -26 -51 -53 -51 -60
0 -10 119 -519 145 -619 l7 -28 -281 0 -281 0 5 23 c101 407 152 643 142 646
-7 2 -35 27 -64 57 -110 112 -109 277 2 389 80 79 199 103 303 59z"/>
<path d="M4919 2231 c-52 -60 -147 -141 -229 -196 -121 -81 -229 -128 -420
-183 -25 -7 93 -10 410 -11 414 -1 448 1 486 18 54 24 89 90 78 148 -5 31 -26
57 -118 149 -136 136 -150 141 -207 75z"/>
<path d="M2899 2163 c-88 -86 -112 -116 -119 -146 -16 -75 26 -147 99 -167 22
-6 203 -10 461 -9 299 1 415 4 390 11 -265 75 -453 181 -615 346 -38 40 -78
72 -87 72 -10 0 -68 -48 -129 -107z"/>
</g>
</svg>
