<?xml version="1.0" standalone="no"?>
<!DOCTYPE svg PUBLIC "-//W3C//DTD SVG 20010904//EN"
 "http://www.w3.org/TR/2001/REC-SVG-20010904/DTD/svg10.dtd">
<svg version="1.0" xmlns="http://www.w3.org/2000/svg"
 width="1300.000000pt" height="866.000000pt" viewBox="0 0 1300.000000 866.000000"
 preserveAspectRatio="xMidYMid meet">

<g transform="translate(0.000000,866.000000) scale(0.100000,-0.100000)"
fill="#000000" stroke="none">
<path d="M370 6576 c0 -192 0 -194 23 -200 12 -3 32 -6 45 -6 28 0 28 -14 1
-41 -14 -14 -28 -19 -45 -15 l-24 6 0 -91 c0 -84 3 -96 36 -165 29 -60 37 -91
41 -153 l6 -79 96 -4 c130 -5 175 -35 115 -75 -20 -13 -56 -18 -160 -21 l-134
-5 0 -141 0 -141 78 -51 c109 -72 370 -207 383 -198 8 5 8 1 0 -14 -6 -11 -70
-50 -143 -87 -191 -97 -227 -125 -228 -176 0 -45 23 -55 84 -36 74 24 96 22
96 -5 0 -28 -9 -42 -36 -56 -23 -12 -37 -6 -47 21 -5 12 -15 17 -29 15 -20 -3
-23 -8 -20 -38 4 -35 52 -141 77 -170 20 -23 75 -135 75 -154 0 -24 -18 -19
-26 7 -9 29 -22 37 -63 37 -28 0 -32 3 -25 18 23 51 16 97 -25 172 -22 41 -53
100 -68 130 -15 30 -29 57 -30 59 -2 2 -14 -2 -28 -9 l-25 -13 0 -614 c0 -533
2 -616 15 -629 19 -20 19 -34 0 -34 -13 0 -15 -23 -15 -143 0 -90 4 -147 11
-154 8 -8 8 -13 0 -17 -7 -5 -11 -89 -11 -262 l0 -254 80 0 c79 0 80 0 80 -25
0 -24 -2 -25 -64 -25 -48 0 -65 4 -70 15 -9 23 -26 18 -26 -9 0 -23 2 -23 128
-30 70 -3 164 -9 209 -12 l83 -7 -25 -29 c-26 -31 -32 -62 -15 -73 24 -15 5
-31 -58 -52 -37 -13 -75 -23 -85 -23 -32 0 -17 -18 49 -59 36 -23 64 -47 62
-53 -5 -15 -76 -12 -210 8 -150 22 -138 28 -138 -70 l0 -85 55 -31 c30 -17 55
-35 55 -40 0 -12 -27 -20 -71 -20 -56 0 -50 -23 13 -46 55 -20 75 -41 65 -68
-5 -12 -20 -16 -62 -16 l-55 0 0 -65 0 -64 266 0 266 0 34 25 c45 35 142 64
237 71 74 6 77 5 77 -15 0 -21 -35 -62 -52 -62 -5 0 -7 -4 -4 -9 7 -11 746
-14 762 -3 6 4 11 15 11 24 0 10 8 43 19 74 l19 56 42 -6 c24 -3 83 -21 133
-40 96 -38 219 -61 170 -33 -14 8 -65 29 -115 46 -103 37 -127 54 -123 90 3
30 10 28 -119 30 -53 0 -94 3 -92 5 2 2 108 9 234 15 286 14 569 32 574 37 2
2 -2 12 -10 21 -13 17 -13 17 7 0 12 -10 37 -17 62 -17 22 0 43 -4 46 -9 3 -5
-76 -12 -175 -16 -99 -4 -192 -11 -207 -16 -21 -7 -16 -8 25 -5 40 2 50 0 46
-11 -3 -7 -9 -13 -14 -13 -5 0 -9 -24 -9 -52 0 -29 -4 -60 -10 -68 -5 -9 -5
-17 1 -21 5 -3 -21 -14 -58 -24 -37 -10 -86 -25 -107 -33 -38 -15 -39 -16 -15
-26 28 -11 1109 -21 1109 -10 0 4 -10 18 -22 31 -34 36 -15 37 27 1 36 -31 42
-33 121 -34 46 0 81 3 78 8 -3 4 -14 8 -24 8 -10 0 -22 5 -25 10 -3 6 2 10 11
10 32 0 0 20 -79 49 l-76 28 -53 -18 c-64 -22 -165 -34 -207 -24 -61 13 -28
59 74 104 l29 12 -31 16 c-28 13 -41 13 -140 -6 -59 -11 -127 -24 -151 -27
-23 -4 -45 -11 -48 -15 -3 -5 -10 -7 -15 -4 -5 4 -14 3 -19 0 -6 -4 -39 -8
-73 -10 l-62 -3 72 17 c40 10 80 24 90 32 11 9 14 10 9 2 -10 -18 -18 -19 234
32 214 43 299 54 197 25 -51 -14 -60 -21 -52 -42 4 -11 21 -13 70 -10 36 2 85
1 111 -3 48 -7 52 -14 29 -67 -5 -13 -2 -20 11 -24 11 -4 71 -29 134 -55 l115
-48 178 1 c98 0 187 3 198 5 12 3 19 14 19 29 0 21 5 24 40 24 29 0 40 -4 40
-15 0 -14 24 -20 70 -17 7 0 26 -6 41 -13 21 -12 129 -14 579 -14 587 -1 578
-1 633 47 9 8 20 12 24 8 4 -4 -6 -18 -22 -31 l-30 -24 103 -1 c97 0 126 10
65 23 -16 4 -45 17 -65 29 l-37 23 35 44 c19 25 33 49 31 55 -2 6 -39 14 -83
18 -43 4 -106 11 -139 17 -49 7 -36 8 65 4 69 -2 131 -7 138 -9 8 -2 53 19
100 48 107 63 116 67 72 32 -48 -39 -112 -105 -106 -111 2 -2 13 0 24 6 12 6
36 10 54 10 25 -1 27 -3 10 -6 -23 -4 -23 -7 -17 -64 6 -47 4 -65 -9 -84 -16
-24 -16 -25 9 -25 24 0 25 3 25 60 l0 60 80 0 c60 0 80 -3 80 -13 0 -25 46
-57 92 -66 l47 -8 52 53 52 52 -44 6 c-89 12 -92 14 -19 13 41 0 80 -4 85 -8
15 -11 188 -15 204 -5 10 6 12 5 7 -2 -5 -8 0 -12 13 -12 11 0 22 -4 25 -8 2
-4 -28 -4 -67 0 -151 15 -174 12 -224 -29 -30 -25 -43 -42 -40 -54 4 -13 -2
-19 -21 -21 -14 -2 -27 -9 -30 -16 -5 -16 183 -17 193 -2 5 7 11 8 19 1 13
-11 1261 -13 1331 -2 37 5 34 6 -30 12 l-70 6 90 0 c50 0 131 8 180 18 58 11
112 15 151 12 73 -7 157 -27 149 -36 -4 -3 -68 -9 -143 -12 -75 -3 86 -5 358
-5 l495 1 99 48 c111 53 119 52 20 -4 -59 -33 -63 -37 -42 -42 42 -11 683 -6
729 5 24 6 96 9 159 8 187 -4 212 -4 269 3 39 6 59 4 75 -7 18 -11 99 -14 450
-15 235 0 439 2 454 6 24 6 23 7 -19 24 -66 27 -37 23 43 -6 l69 -25 802 3
802 2 3 51 3 52 -118 6 c-177 10 -182 13 -25 15 l142 1 0 127 0 126 -25 -23
-26 -24 -127 18 c-183 26 -296 66 -268 93 4 4 89 7 189 8 150 0 189 -3 220
-17 l37 -17 0 164 c0 153 -1 164 -17 157 -96 -42 -143 -66 -138 -70 3 -3 27
-13 53 -21 56 -19 68 -46 25 -58 -15 -4 -91 -8 -168 -8 -133 0 -143 1 -192 27
l-53 27 0 -74 0 -75 -332 0 c-183 0 -337 -4 -343 -8 -9 -6 -41 -44 -107 -126
-38 -46 -15 3 27 59 25 33 45 63 45 68 0 4 -30 7 -67 7 l-67 0 29 -30 29 -30
-60 0 c-32 0 -149 9 -259 20 -110 11 -244 20 -297 20 -59 0 -98 4 -98 10 0 6
-48 10 -124 10 -98 0 -126 -3 -136 -15 -10 -13 -9 -15 8 -15 24 0 38 -16 20
-23 -7 -3 -4 -6 7 -7 19 -1 19 -2 -2 -10 -24 -10 -102 -13 -143 -6 -14 2 -40
5 -57 5 -22 1 -33 6 -33 16 0 12 15 15 68 16 85 1 101 4 121 23 14 15 -12 16
-279 16 l-295 0 25 -24 c23 -23 287 -135 356 -152 16 -4 34 -10 39 -15 6 -4
37 -17 69 -30 47 -17 56 -23 42 -31 -9 -5 -16 -16 -16 -23 0 -12 -21 -15 -111
-15 -89 0 -110 -3 -103 -13 5 -7 1 -5 -8 5 -12 14 -37 20 -100 24 -99 7 -118
11 -99 23 11 7 11 16 1 45 -7 21 -9 40 -5 44 3 4 42 6 86 5 43 0 79 2 79 6 0
3 -31 18 -68 33 -108 44 -106 43 -97 27 5 -8 -3 -4 -16 8 -13 12 -40 28 -59
37 -21 9 -25 13 -10 10 25 -7 25 -7 6 15 -17 19 -30 21 -122 21 -79 0 -102 -3
-99 -12 3 -8 -39 -36 -113 -75 -64 -35 -146 -78 -182 -98 -36 -19 -54 -27 -40
-18 94 68 140 104 140 111 0 5 -35 12 -78 15 -85 7 -162 28 -204 58 -25 18
-52 19 -486 19 l-460 0 -7 -32 c-6 -27 -3 -36 19 -55 15 -13 39 -23 54 -23 15
-1 38 -7 52 -15 l25 -15 -30 7 c-41 9 -37 10 -240 -25 -217 -38 -379 -62 -402
-61 -22 1 71 18 305 54 100 16 182 32 182 36 0 4 -28 33 -62 64 l-63 56 55
-21 c68 -27 75 -28 74 -12 -4 44 2 42 -133 42 -76 0 -132 -4 -136 -10 -8 -13
-155 -13 -155 0 0 6 -77 10 -210 10 -115 0 -210 -4 -210 -8 0 -10 -76 -28
-159 -38 l-54 -7 7 27 6 26 -203 0 c-149 0 -207 -3 -216 -12 -11 -10 -13 -10
-7 0 6 9 -28 12 -156 12 l-163 0 -19 -48 c-27 -64 -66 -130 -128 -213 -85
-113 -69 -71 34 91 36 57 68 130 68 155 0 11 -11 15 -42 15 -42 -1 -42 -1 -16
-13 35 -15 25 -31 -27 -46 -48 -13 -125 -15 -125 -2 0 5 14 14 31 21 l31 13
-24 13 c-18 10 -110 13 -405 14 -379 0 -382 0 -388 -21 -10 -32 -86 -60 -178
-67 l-80 -5 5 29 c3 16 9 37 13 46 7 17 -26 18 -565 17 l-573 0 23 -24 c30
-32 16 -32 -22 0 l-30 25 -600 0 -600 0 44 -34 c42 -32 78 -76 78 -93 0 -4 -4
-3 -8 2 -4 6 -30 29 -59 53 l-52 42 -91 0 c-58 0 -89 -4 -85 -10 4 -7 -3 -7
-19 0 -14 5 -26 7 -26 5 0 -3 -15 4 -32 15 -32 19 -53 20 -866 20 l-834 0 5
159 5 159 -52 8 -51 7 44 11 c49 13 60 31 57 92 -2 21 -3 73 -4 115 l-2 76
-107 6 c-76 3 -125 11 -165 26 -60 23 -111 71 -106 100 7 38 258 16 337 -30
18 -11 36 -17 39 -14 4 3 7 72 7 153 0 147 0 147 -22 144 -29 -4 -31 23 -4 52
21 23 24 39 22 138 l-1 67 -42 12 c-24 6 -77 13 -118 14 -41 2 -76 8 -78 13
-11 34 145 57 203 30 37 -16 46 1 43 81 l-3 65 -125 -3 c-166 -3 -131 26 53
45 l67 7 0 109 c0 60 -5 119 -11 130 -8 15 -8 19 0 14 13 -8 15 42 15 519 1
214 -3 343 -9 347 -6 5 -5 12 3 20 15 15 16 60 0 76 -9 9 -9 12 1 12 7 0 9 5
5 11 -4 7 -6 94 -5 195 l2 182 -33 7 c-47 10 -86 32 -141 78 -54 45 -57 63 -3
22 43 -33 99 -54 144 -55 l32 0 0 160 c0 185 8 175 -111 139 -49 -15 -82 -19
-113 -15 -40 6 -42 8 -38 36 3 24 1 30 -14 31 -11 0 26 11 81 24 141 32 168
37 110 19 -55 -18 -122 -47 -90 -40 11 3 53 6 92 8 53 2 74 7 79 18 3 8 8 79
11 158 l6 142 229 0 c150 0 227 3 223 10 -3 6 -19 10 -36 10 -58 0 -21 56 45
67 40 6 120 -12 136 -32 14 -17 -5 -31 -60 -43 -34 -7 15 -10 209 -11 l254 -1
-21 23 c-25 27 -28 37 -9 37 8 0 19 -11 25 -25 13 -27 43 -38 92 -33 50 5 47
24 -8 52 -28 14 -52 29 -54 34 -1 5 -56 12 -120 15 l-118 5 0 -28 c0 -31 -18
-40 -68 -32 -35 5 -37 9 -21 46 17 37 107 51 322 51 158 0 179 -2 188 -17 5
-10 30 -26 55 -37 24 -11 51 -27 60 -36 14 -13 13 -15 -13 -15 -28 0 -53 -15
-53 -32 0 -4 96 -8 213 -8 l213 1 10 28 c25 64 199 58 295 -10 25 -17 41 -19
131 -17 l103 3 3 38 c3 33 6 37 31 37 23 0 79 -31 137 -75 10 -7 23 -1 46 20
31 28 31 28 9 3 l-24 -28 90 0 91 0 19 48 c19 49 24 156 10 222 -4 19 -18 48
-32 63 -27 29 -22 33 19 17 21 -8 26 -6 31 11 9 28 3 32 -66 45 -49 9 -59 8
-55 -3 4 -9 -7 -7 -35 7 -22 12 -74 34 -117 50 l-77 30 -830 0 -830 0 0 -33 0
-32 -63 -3 c-61 -3 -63 -2 -62 20 4 46 1 49 -37 46 -36 -3 -38 -5 -37 -35 2
-39 -9 -43 -130 -43 -104 0 -194 22 -231 56 l-26 24 -275 0 -274 0 0 -194z
m1570 92 c65 -66 49 -82 -60 -58 -76 17 -120 40 -120 65 0 33 20 45 77 45 50
0 55 -2 103 -52z m749 -14 c26 -6 31 -11 31 -35 l0 -29 -125 0 c-100 0 -125 3
-125 14 0 41 123 69 219 50z m-1271 -81 c58 -20 52 -42 -18 -67 -53 -19 -60
-19 -214 -3 -87 9 -161 19 -164 21 -12 13 22 34 70 44 76 16 208 26 209 16 1
-5 2 -21 3 -37 2 -44 21 -36 24 11 4 48 1 47 90 15z m2020 2 c-8 -9 -230 -47
-236 -41 -3 3 1 6 9 7 8 0 52 9 99 19 86 18 138 24 128 15z m-369 -79 c7 -8
23 -17 36 -20 28 -7 33 -31 9 -40 -42 -16 -154 0 -154 23 0 5 12 12 26 15 15
4 33 14 41 21 18 19 27 19 42 1z m-189 -35 c-60 -20 -113 -31 -180 -34 l-95
-6 60 22 c33 13 69 28 80 35 12 6 62 11 120 12 l100 0 -85 -29z m-287 -48 c-7
-2 -19 -2 -25 0 -7 3 -2 5 12 5 14 0 19 -2 13 -5z m-96 -19 c-3 -3 -12 -4 -19
-1 -8 3 -5 6 6 6 11 1 17 -2 13 -5z m-40 -10 c-3 -3 -12 -4 -19 -1 -8 3 -5 6
6 6 11 1 17 -2 13 -5z m-42 -9 c-5 -2 -29 -9 -53 -15 -29 -7 -40 -15 -35 -23
5 -9 3 -9 -9 0 -11 10 -23 10 -46 2 -17 -6 -39 -9 -49 -7 -21 4 139 46 177 46
14 0 21 -1 15 -3z m-1807 -182 l-3 -68 -103 -3 c-112 -3 -125 3 -106 56 17 48
84 78 182 81 l33 1 -3 -67z m106 -1173 c5 -5 6 -16 2 -26 -5 -13 -14 -15 -49
-10 -54 9 -68 23 -42 42 21 16 71 12 89 -6z m101 -317 c-5 -10 -10 -33 -13
-50 -4 -31 -7 -33 -44 -33 -41 0 -107 25 -109 41 -5 28 0 33 41 44 25 7 65 13
89 14 38 1 42 -1 36 -16z m-41 -228 c-4 -9 -19 -15 -40 -15 -39 0 -43 7 -11
20 35 14 57 12 51 -5z m-16 -120 c58 -82 69 -135 32 -155 -31 -17 -109 -28
-138 -21 -24 7 -22 8 26 29 28 12 67 22 86 22 22 0 36 5 36 13 0 21 -37 75
-85 121 -42 42 -55 73 -38 90 5 4 12 0 18 -9 5 -9 34 -49 63 -90z m-148 -15
c0 -26 -4 -30 -27 -30 -45 0 -99 19 -118 40 -18 20 -17 20 63 20 l82 0 0 -30z
m172 -711 c21 -11 23 -30 6 -47 -30 -30 -98 1 -98 45 0 24 2 25 37 18 21 -4
46 -11 55 -16z m-122 -54 c17 -9 30 -20 30 -26 0 -15 -27 -22 -55 -15 -18 5
-25 13 -25 31 0 29 10 31 50 10z m35 -289 c33 -14 60 -47 48 -60 -8 -8 -66 -8
-87 0 -18 7 -23 74 -6 74 6 0 26 -6 45 -14z m130 -646 c9 -28 -5 -51 -29 -48
-21 3 -33 36 -22 63 7 18 44 8 51 -15z m1357 -260 c32 -9 58 -33 58 -55 0 -3
-35 -5 -77 -3 -74 3 -78 4 -81 27 -6 40 29 50 100 31z m2134 -28 c-106 -23
-161 -38 -150 -43 11 -4 27 -16 37 -27 18 -19 17 -20 -35 -33 -81 -20 -192
-18 -215 4 -19 16 -25 16 -134 -2 -121 -20 -231 -34 -214 -26 9 4 216 45 296
59 21 4 48 15 60 25 18 14 63 23 174 36 83 9 184 23 225 30 146 25 123 12 -44
-23z m1824 22 c-64 -22 -204 -89 -264 -125 l-51 -31 29 31 29 30 -31 -3 c-17
-3 -40 -2 -52 1 -32 8 -23 54 13 71 33 16 64 10 97 -18 30 -26 42 -25 91 7 41
27 115 52 159 52 18 0 12 -4 -20 -15z m-4952 -56 c4 -20 -24 -48 -48 -48 -24
0 -29 8 -23 46 5 29 7 31 36 25 18 -4 33 -14 35 -23z m-88 -8 c0 -67 -92 -110
-236 -110 -46 0 -85 4 -88 8 -10 17 21 58 61 80 49 27 147 50 216 51 46 1 47
0 47 -29z m7663 13 c-7 -2 -21 -2 -30 0 -10 3 -4 5 12 5 17 0 24 -2 18 -5z
m247 2 c0 -6 -76 -45 -87 -45 -10 1 69 50 80 50 4 0 7 -2 7 -5z m-317 -12
c-13 -2 -35 -2 -50 0 -16 2 -5 4 22 4 28 0 40 -2 28 -4z m991 -2 c6 -8 -66
-31 -98 -31 -9 0 -16 9 -16 20 0 18 7 20 54 20 30 0 57 -4 60 -9z m-1106 -8
c-15 -2 -42 -2 -60 0 -18 2 -6 4 27 4 33 0 48 -2 33 -4z m3478 -7 c24 -18 10
-36 -32 -39 -25 -2 -29 2 -32 26 -3 23 0 27 20 27 13 0 33 -6 44 -14z m-3593
-3 c-13 -2 -33 -2 -45 0 -13 2 -3 4 22 4 25 0 35 -2 23 -4z m-5534 -38 c40
-13 76 -24 79 -23 17 4 112 -46 112 -59 0 -8 -6 -13 -12 -10 -7 3 -62 26 -123
52 -147 61 -152 64 -139 64 6 1 43 -10 83 -24z m5951 0 c-7 -8 -17 -15 -23
-15 -5 0 -2 9 8 20 21 23 35 19 15 -5z m-4593 -35 c10 -11 30 -20 46 -20 17 0
30 -6 34 -17 3 -10 24 -38 47 -62 50 -53 21 -42 -64 25 -105 83 -116 94 -97
94 9 0 25 -9 34 -20z m126 3 c-13 -2 -35 -2 -50 0 -16 2 -5 4 22 4 28 0 40 -2
28 -4z m4170 -10 c37 -3 67 -10 67 -14 0 -5 -6 -9 -12 -10 -7 0 19 -7 57 -15
90 -17 145 -42 145 -64 0 -10 -7 -21 -16 -24 -26 -10 -189 -7 -244 5 -50 11
-50 11 -50 49 0 31 -6 44 -32 65 -31 25 -31 27 -8 21 14 -4 55 -9 93 -13z
m-5010 0 c-7 -2 -19 -2 -25 0 -7 3 -2 5 12 5 14 0 19 -2 13 -5z m1197 -19
c261 -28 268 -30 80 -26 -102 2 -208 0 -237 -5 -59 -11 -89 -1 -60 21 25 19
22 22 -30 25 -26 1 -50 5 -53 8 -6 7 101 -1 300 -23z m4010 17 c-14 -4 -43
-11 -65 -14 l-40 -6 40 14 c22 7 51 13 65 13 l25 0 -25 -7z m428 -3 c7 -7 12
-20 12 -30 0 -14 -9 -18 -40 -19 -22 -1 -46 -2 -52 -3 -14 -1 -22 28 -14 50 7
17 77 19 94 2z m2062 -39 l0 -52 -56 6 c-63 6 -107 30 -102 55 2 12 21 20 63
28 99 19 95 21 95 -37z m-9874 30 c2 -4 -16 -11 -41 -15 -25 -3 -50 -13 -55
-23 -7 -11 -12 -13 -17 -4 -5 6 -26 14 -48 18 -54 10 -65 18 -35 26 32 10 190
7 196 -2z m2061 -5 c-3 -3 -12 -4 -19 -1 -8 3 -5 6 6 6 11 1 17 -2 13 -5z
m8743 -16 c46 -24 70 -51 56 -65 -4 -4 -65 -8 -134 -8 -125 0 -127 0 -130 23
-4 30 13 50 52 61 55 16 110 12 156 -11z m-8793 6 c-3 -3 -12 -4 -19 -1 -8 3
-5 6 6 6 11 1 17 -2 13 -5z m4266 -11 c-7 -2 -21 -2 -30 0 -10 3 -4 5 12 5 17
0 24 -2 18 -5z m-6159 -12 c4 -5 0 -12 -6 -15 -7 -3 37 -3 97 -1 l110 4 -110
-14 c-146 -18 -145 -18 -145 4 0 26 42 43 54 22z m6094 2 c-10 -2 -26 -2 -35
0 -10 3 -2 5 17 5 19 0 27 -2 18 -5z m-5851 -9 c-3 -3 -12 -4 -19 -1 -8 3 -5
6 6 6 11 1 17 -2 13 -5z m5766 -1 c-7 -2 -21 -2 -30 0 -10 3 -4 5 12 5 17 0
24 -2 18 -5z m-725 -44 c1 -18 5 -35 7 -38 3 -2 69 3 146 13 78 9 143 15 145
13 2 -2 -62 -14 -143 -28 -143 -24 -184 -41 -128 -55 43 -11 22 -16 -75 -18
-70 -2 -96 1 -107 12 -14 15 -73 14 -173 -3 -19 -3 1 6 45 19 44 14 84 25 89
26 4 0 5 7 2 16 -5 13 -4 14 7 6 10 -9 30 -3 82 23 38 20 73 39 79 45 14 14
21 5 24 -31z m660 34 c-10 -2 -26 -2 -35 0 -10 3 -2 5 17 5 19 0 27 -2 18 -5z
m3044 -14 c32 -12 57 -23 55 -25 -4 -5 -127 36 -127 42 0 7 12 4 72 -17z
m-5179 4 c-7 -2 -21 -2 -30 0 -10 3 -4 5 12 5 17 0 24 -2 18 -5z m2002 -8
c-44 -8 -91 -13 -105 -13 -36 1 109 26 150 26 19 0 -1 -6 -45 -13z m-5880 -4
c-11 -11 -153 -27 -143 -17 3 4 37 11 75 15 37 5 70 9 73 10 2 0 0 -3 -5 -8z
m5722 -17 c-3 -3 -12 -4 -19 -1 -8 3 -5 6 6 6 11 1 17 -2 13 -5z m-1202 -14
c34 -6 17 -7 -55 -3 -58 3 -107 7 -109 9 -8 7 113 2 164 -6z m4695 -21 c27
-10 37 -18 25 -19 -11 0 -37 -3 -57 -6 -33 -6 -38 -4 -38 13 0 10 -6 25 -12
32 -15 16 9 10 82 -20z m150 5 l65 -13 -60 4 c-33 2 -80 11 -105 20 l-45 15
40 -7 c22 -3 69 -12 105 -19z m-8151 3 c6 -8 8 -17 4 -20 -3 -4 2 -7 13 -8 16
0 16 -2 -4 -10 -30 -11 -152 11 -152 28 0 7 20 13 53 16 28 2 57 4 63 5 6 1
17 -4 23 -11z m8451 -8 c58 -19 82 -20 215 -16 83 3 177 2 210 -2 43 -6 2 -8
-142 -10 l-203 -1 0 -30 0 -30 -95 0 -95 0 0 35 0 35 -52 1 -53 2 49 7 c28 3
52 12 54 18 5 17 38 15 112 -9z m-6155 -21 c47 -21 29 -37 -82 -71 l-82 -25
-43 30 c-24 17 -45 32 -47 34 -11 9 26 34 62 43 49 12 156 5 192 -11z m5831
-24 c38 -14 88 -32 112 -41 24 -8 41 -17 39 -19 -4 -5 -190 61 -216 76 -27 16
-7 11 65 -16z m887 19 c-13 -2 -35 -2 -50 0 -16 2 -5 4 22 4 28 0 40 -2 28 -4z
m385 0 c-53 -2 -143 -2 -200 0 -57 1 -13 3 97 3 110 0 156 -2 103 -3z m-5561
-9 c-3 -3 -12 -4 -19 -1 -8 3 -5 6 6 6 11 1 17 -2 13 -5z m-2641 -26 c9 -14
-23 -38 -53 -38 -24 0 -27 7 -17 34 7 19 59 22 70 4z m1204 -38 c0 -34 -21
-40 -57 -15 -31 22 -19 45 23 45 31 0 34 -3 34 -30z m1367 24 c-3 -3 -12 -4
-19 -1 -8 3 -5 6 6 6 11 1 17 -2 13 -5z m-92 -14 c-3 -5 -12 -10 -18 -10 -7 0
-6 4 3 10 19 12 23 12 15 0z m42 4 c-3 -3 -12 -4 -19 -1 -8 3 -5 6 6 6 11 1
17 -2 13 -5z m793 -5 c52 -6 149 -16 215 -24 66 -7 102 -13 80 -14 -37 -1
-259 20 -415 39 -57 6 -60 8 -20 9 25 0 88 -4 140 -10z m-977 -26 c-7 -2 -19
-2 -25 0 -7 3 -2 5 12 5 14 0 19 -2 13 -5z"/>
<path d="M8588 2193 c6 -2 18 -2 25 0 6 3 1 5 -13 5 -14 0 -19 -2 -12 -5z"/>
<path d="M3305 6747 c54 -30 100 -45 163 -53 l52 -7 0 42 0 41 -127 0 -128 0
40 -23z"/>
<path d="M3540 6740 c0 -72 41 -104 125 -95 29 3 45 2 37 -3 -8 -5 6 -14 44
-26 67 -21 67 -28 -1 -15 -69 13 -167 10 -152 -5 11 -10 62 -48 152 -113 77
-55 253 -172 282 -187 29 -14 79 -16 428 -15 331 1 397 3 402 15 4 11 36 14
167 12 118 -2 134 -3 61 -5 -55 -2 -104 -8 -109 -13 -7 -7 57 -10 174 -9 111
1 168 4 142 9 -24 3 -47 11 -50 16 -4 5 -20 20 -36 32 l-29 22 33 -7 c18 -3
41 -14 52 -25 10 -10 29 -18 43 -18 15 0 40 -7 58 -16 26 -14 45 -15 112 -8
105 11 265 11 390 0 l100 -9 -20 24 -20 24 26 -22 c24 -22 34 -23 180 -23 128
0 159 3 178 17 13 9 41 19 62 23 32 6 42 4 60 -16 20 -22 49 -32 49 -19 0 3
-16 19 -35 36 -38 34 -43 50 -20 69 18 15 95 31 95 19 0 -4 -16 -20 -36 -36
l-36 -27 38 -33 39 -33 238 0 c130 1 237 2 237 4 0 3 -36 16 -81 31 -44 15
-79 29 -77 31 2 2 49 -10 104 -25 l99 -29 23 21 c12 11 22 24 22 28 0 14 -61
31 -90 26 -36 -8 -245 35 -291 58 -80 42 -53 52 137 54 91 1 164 -5 239 -19
103 -18 110 -18 129 -2 17 14 19 14 8 1 -16 -21 -7 -25 101 -40 l82 -12 81 41
c44 22 86 47 93 56 8 9 21 16 30 16 26 0 210 99 231 125 9 11 -2 13 -72 10
l-83 -4 95 18 c86 17 150 32 198 47 11 4 8 -2 -8 -15 l-25 -22 55 5 c30 3 120
7 200 10 184 5 89 -8 -131 -19 l-156 -8 -123 -72 c-69 -40 -126 -77 -127 -81
-2 -5 27 -19 64 -32 38 -12 55 -20 38 -18 -16 3 -38 8 -47 11 -15 6 -18 2 -18
-24 0 -28 -3 -31 -29 -31 -50 0 -84 18 -78 41 8 29 -11 22 -226 -86 l-188 -95
283 0 284 0 49 51 c28 28 58 55 68 61 17 8 17 7 7 -12 -6 -12 -30 -39 -52 -61
l-40 -39 246 0 c135 0 246 3 246 8 0 4 -24 17 -53 30 l-52 22 45 -6 c25 -4 81
-17 125 -30 66 -19 103 -24 210 -24 77 0 159 6 200 15 84 18 91 18 45 0 l-35
-13 41 -1 c30 -1 45 5 61 22 16 19 49 30 169 55 205 45 208 45 129 19 l-70
-23 97 -6 c109 -7 142 -19 133 -49 -6 -18 3 -19 379 -19 212 0 386 3 386 5 0
7 -42 71 -70 108 -34 43 -6 31 38 -17 23 -25 44 -56 48 -70 6 -26 7 -26 113
-26 58 0 139 7 180 15 40 9 79 14 85 11 6 -2 2 -5 -9 -5 -11 -1 -27 -6 -35
-11 -10 -7 31 -10 131 -9 137 2 146 3 142 20 -3 11 -10 16 -17 12 -7 -5 -7 -2
1 8 17 21 0 43 -28 36 -23 -6 -23 -6 -4 8 31 22 55 48 50 53 -3 3 -20 -3 -37
-12 -31 -17 -38 -17 -110 -2 -43 9 -160 19 -267 23 -105 3 -189 9 -185 12 3 3
126 6 273 6 208 0 271 3 284 13 10 9 17 33 19 65 2 37 7 53 18 55 12 2 15 -8
16 -45 1 -27 8 -69 15 -95 11 -41 18 -48 39 -49 l25 -1 -25 -7 c-22 -6 -25
-13 -28 -54 l-3 -47 588 0 589 0 77 64 c96 80 258 196 222 159 -18 -19 -220
-186 -237 -197 -32 -20 -19 -25 60 -21 42 1 116 4 164 6 l88 4 -35 -20 -35
-20 0 -99 0 -99 61 7 c37 4 59 4 55 -2 -3 -5 3 -17 14 -27 11 -10 20 -26 20
-37 0 -15 -8 -18 -50 -18 -38 0 -50 4 -50 15 0 9 -9 15 -25 15 -23 0 -25 -4
-25 -45 l0 -44 67 -3 c67 -3 68 -4 73 -33 5 -29 7 -30 72 -36 37 -3 73 -11 80
-17 10 -8 34 -7 93 3 44 8 86 14 93 15 20 0 14 51 -10 71 l-21 19 21 0 c17 0
22 6 22 26 0 23 -3 26 -25 22 -23 -5 -25 -2 -25 28 0 18 -3 39 -6 48 -5 13 1
16 25 16 28 0 31 3 31 31 0 26 -3 30 -17 23 -38 -16 -123 -3 -123 20 0 24 51
49 98 47 l43 -1 -3 57 c-3 54 -5 58 -25 55 -19 -3 -23 2 -23 23 0 21 4 26 23
23 22 -3 22 -2 25 138 l3 140 -53 16 c-100 31 -120 32 -188 3 -34 -14 -91 -44
-126 -67 l-64 -40 -62 19 c-76 22 -86 44 -31 62 68 22 106 11 130 -37 2 -6
113 71 113 79 0 4 -21 11 -47 14 -27 4 -54 8 -60 10 -18 6 -16 35 4 57 16 18
2 19 -553 15 -323 -2 -589 -8 -616 -14 -35 -7 -55 -6 -79 4 -23 10 -101 13
-314 13 -242 0 -284 -2 -289 -15 -10 -28 -70 -48 -120 -41 -41 6 -46 10 -46
33 l0 26 -297 -6 c-463 -10 -576 -17 -590 -36 -9 -12 -34 -17 -110 -19 -190
-7 -280 -6 -438 2 l-160 10 65 12 c124 23 125 33 6 33 -90 1 -111 -2 -121 -15
-20 -28 -107 -31 -150 -5 -33 19 -51 21 -221 21 -178 0 -186 -1 -235 -26 -28
-14 -53 -23 -56 -20 -3 2 9 12 26 21 17 8 31 18 31 20 0 3 -579 5 -1286 5
-1223 0 -1286 -1 -1273 -18 13 -16 13 -16 -7 1 -19 16 -65 17 -644 17 l-624 0
-173 -45 c-204 -53 -247 -58 -78 -9 66 20 131 39 145 44 15 5 -97 9 -277 9
l-303 1 0 -30z m836 -1 c38 -12 112 -39 164 -61 103 -43 393 -189 387 -194 -4
-4 -305 129 -394 175 -34 17 -71 31 -82 31 -26 0 -150 45 -164 59 -17 17 12
14 89 -10z m438 1 c15 -15 -39 -40 -122 -55 -75 -14 -84 -14 -107 1 -14 9 -25
20 -25 24 0 5 25 12 55 15 30 4 60 14 66 22 9 11 26 12 68 7 31 -3 60 -10 65
-14z m2151 5 c-44 -8 -90 -17 -102 -21 -14 -4 -23 -2 -23 4 0 6 21 14 48 17
26 3 54 8 62 9 8 2 33 4 55 4 26 0 12 -5 -40 -13z m-1325 -20 c41 -21 39 -45
-2 -45 -45 0 -24 -17 37 -29 l50 -10 -59 5 c-47 5 -57 3 -50 -8 6 -10 4 -10
-10 1 -9 8 -50 20 -89 26 -69 12 -70 13 -24 14 45 1 47 2 47 31 0 28 3 30 35
30 20 0 49 -7 65 -15z m245 1 c38 -8 71 -19 73 -25 2 -6 29 -11 67 -11 58 0
63 -2 58 -20 -3 -11 0 -27 7 -35 7 -8 -21 0 -61 19 -41 18 -112 43 -159 56
-126 33 -118 41 15 16z m374 0 c13 -7 30 -27 37 -45 l13 -31 -44 0 c-52 0 -85
25 -85 65 0 21 5 25 28 25 15 -1 38 -7 51 -14z m4679 -24 c6 -9 12 -35 12 -59
l0 -43 -257 1 c-177 0 -249 4 -228 10 17 5 80 23 142 39 61 17 139 41 174 54
70 26 135 25 157 -2z m-1527 -38 c58 -6 99 -23 99 -41 0 -7 -8 -16 -17 -19
-10 -3 -24 -9 -32 -13 -28 -14 -261 20 -261 39 0 9 78 30 113 30 34 0 40 10
20 34 -14 17 -13 16 8 -2 16 -14 44 -25 70 -28z m-2855 5 c20 -16 17 -28 -8
-40 -16 -6 100 -8 357 -6 243 2 333 1 250 -4 -191 -11 -653 -15 -702 -5 -48 9
-55 21 -18 30 14 4 30 17 35 31 8 21 12 23 41 15 17 -5 37 -14 45 -21z m904
25 c0 -4 -19 -24 -42 -46 -37 -33 -39 -38 -18 -32 14 4 28 11 32 17 6 10 113
3 165 -10 50 -12 6 -23 -90 -23 -56 0 -109 -5 -117 -10 -10 -7 20 -10 95 -10
122 0 155 -9 106 -29 -34 -15 -132 -10 -203 9 -44 12 -50 12 -69 -6 l-21 -19
28 -6 c16 -4 57 -7 92 -8 34 0 62 -5 62 -9 0 -10 -128 -52 -158 -52 -12 0 -22
4 -22 10 0 16 -45 40 -91 49 l-44 9 61 1 c51 1 64 5 84 26 13 14 18 25 12 25
-25 0 -11 21 17 26 16 4 39 16 50 28 l20 21 -84 0 c-79 1 -106 7 -92 21 15 15
227 32 227 18z m-2037 -11 c-13 -2 -33 -2 -45 0 -13 2 -3 4 22 4 25 0 35 -2
23 -4z m-1593 -13 c-34 -11 -60 -11 -35 0 11 5 29 8 40 8 16 0 15 -2 -5 -8z
m6065 -50 c-55 -27 -104 -49 -110 -49 -16 -1 74 49 135 75 94 40 80 25 -25
-26z m1424 36 c15 -17 3 -76 -16 -76 -20 0 -73 29 -73 39 0 12 51 50 66 51 6
0 17 -6 23 -14z m-7562 -2 c-3 -3 -12 -4 -19 -1 -8 3 -5 6 6 6 11 1 17 -2 13
-5z m641 -29 c78 -32 39 -38 -219 -37 -133 1 -244 3 -246 5 -5 6 97 37 154 47
77 14 261 5 311 -15z m1365 8 c-7 -2 -19 -2 -25 0 -7 3 -2 5 12 5 14 0 19 -2
13 -5z m2688 -8 c39 -6 79 -40 63 -54 -11 -10 -116 -31 -155 -31 -66 0 -132
72 -76 85 62 13 89 13 168 0z m3214 -10 c-55 -13 -141 -35 -192 -49 -95 -27
-127 -32 -83 -15 44 18 324 88 350 88 14 0 -20 -11 -75 -24z m-5820 5 c27 -7
27 -8 5 -8 -14 0 -36 4 -50 8 -20 6 -21 8 -5 8 11 0 34 -4 50 -8z m224 -49
c58 -17 106 -29 108 -27 2 2 -11 18 -29 37 l-33 33 42 -24 c24 -13 53 -34 65
-47 21 -22 21 -24 4 -41 -16 -16 -18 -16 -27 0 -19 33 -229 88 -229 60 0 -6
-29 -32 -64 -58 -71 -52 -83 -74 -55 -100 18 -16 25 -16 125 5 58 13 107 21
110 19 2 -2 -33 -17 -79 -32 -45 -15 -89 -30 -97 -33 -38 -15 -197 -43 -241
-43 -37 0 -51 12 -29 25 6 3 10 17 10 31 0 23 2 24 75 24 l75 0 -4 30 c-2 17
-1 29 2 26 6 -6 83 46 101 68 12 14 9 16 -23 16 -44 0 -46 14 -5 39 21 13 27
21 17 25 -34 16 88 -6 181 -33z m340 14 c22 -22 6 -41 -43 -54 -52 -13 -59
-26 -18 -35 15 -3 37 -8 50 -12 17 -5 22 -2 22 13 0 16 6 18 40 15 31 -3 40
-8 40 -22 0 -10 -8 -20 -17 -22 -10 -2 56 -26 146 -53 l163 -50 -71 -6 c-81
-6 -97 -14 -49 -24 81 -16 119 -46 56 -44 -95 3 -126 10 -132 32 -3 14 2 29
16 44 12 13 20 25 17 27 -2 2 -46 18 -98 35 -102 35 -226 62 -247 54 -29 -11
-12 -35 41 -58 30 -14 55 -29 55 -35 0 -16 -12 -12 -59 20 -24 16 -59 35 -77
42 -19 7 -34 14 -34 18 1 3 19 17 41 33 36 25 47 41 63 91 5 15 12 17 44 11
20 -3 43 -13 51 -20z m4511 -11 c0 -8 5 -12 10 -9 19 12 10 -2 -17 -26 l-28
-24 20 24 c20 24 20 24 0 17 -36 -13 -125 -27 -135 -21 -11 7 -13 38 -3 48 3
4 39 7 80 7 59 0 73 -3 73 -16z m-4294 -4 c17 0 22 -4 18 -15 -7 -17 -69 -21
-79 -5 -9 15 5 32 22 26 8 -3 25 -6 39 -6z m-2571 -62 c49 -16 171 -59 270
-94 99 -36 213 -77 253 -91 40 -14 71 -28 69 -30 -4 -4 -278 90 -369 127 -38
15 -48 16 -48 5 0 -20 -103 -41 -133 -28 -13 6 -58 14 -100 18 -42 4 -77 11
-77 15 0 7 97 20 156 20 38 0 45 15 14 25 -12 4 -53 22 -93 41 -40 20 -63 32
-52 29 11 -3 60 -20 110 -37z m1358 20 c8 -31 -16 -71 -65 -107 -47 -35 -58
-30 -58 29 0 57 39 98 96 99 14 1 24 -7 27 -21z m4706 13 c10 -6 12 -19 7 -45
l-7 -36 -95 0 c-116 0 -184 15 -184 40 0 26 24 33 145 40 61 4 112 7 115 8 3
1 11 -2 19 -7z m1231 -11 c-8 -5 -22 -9 -30 -9 -10 0 -8 3 5 9 27 12 43 12 25
0z m-51 -14 c-8 -8 -281 -86 -298 -85 -9 0 49 20 129 44 137 41 179 51 169 41z
m-1701 -23 c-21 -8 -36 -19 -33 -23 3 -5 -3 -6 -13 -4 -9 3 -28 1 -42 -5 -21
-8 -22 -10 -5 -11 43 -1 -10 -20 -58 -20 -26 0 -82 -7 -123 -16 -42 -8 -81
-13 -87 -11 -6 2 27 11 74 21 126 26 149 35 149 56 0 16 9 20 68 23 37 2 76 4
87 5 11 0 3 -6 -17 -15z m-1657 -54 c-21 -17 -22 -22 -10 -30 10 -6 8 -9 -12
-9 -14 0 -34 9 -44 20 -18 20 -18 20 12 14 22 -4 32 -2 36 10 4 9 14 16 24 16
15 -1 14 -4 -6 -21z m355 9 c6 -9 -37 -20 -85 -22 -24 0 -44 6 -56 17 -17 18
-15 18 59 16 43 -2 80 -7 82 -11z m2641 -34 c-3 -3 -12 -4 -19 -1 -8 3 -5 6 6
6 11 1 17 -2 13 -5z m-50 -10 c-3 -3 -12 -4 -19 -1 -8 3 -5 6 6 6 11 1 17 -2
13 -5z m-44 -11 c-7 -2 -21 -2 -30 0 -10 3 -4 5 12 5 17 0 24 -2 18 -5z
m-4578 -28 c27 -26 33 -65 11 -65 -7 0 -33 7 -56 15 -23 8 -70 15 -104 16 -43
0 -55 3 -41 9 11 5 36 9 55 9 51 2 80 11 80 27 0 22 29 16 55 -11z m4853 -8
c15 -16 10 -17 -71 -17 -85 0 -105 8 -69 30 25 15 120 7 140 -13z m156 0 c40
-22 50 -43 21 -41 -8 0 -35 1 -60 2 -43 2 -45 3 -45 32 0 24 4 30 23 30 12 0
40 -10 61 -23z m1265 19 c-2 -2 -40 -14 -84 -26 -43 -12 -86 -25 -95 -28 -8
-3 -12 -2 -8 3 4 4 43 18 85 31 73 21 112 29 102 20z m-7031 -26 c52 -32 42
-48 -33 -52 -36 -1 -65 -1 -65 2 0 3 9 11 20 18 11 7 20 21 20 32 0 25 16 25
58 0z m-195 3 c-7 -2 -21 -2 -30 0 -10 3 -4 5 12 5 17 0 24 -2 18 -5z m7017
-43 c-8 -5 -19 -10 -25 -10 -5 0 -3 5 5 10 8 5 20 10 25 10 6 0 3 -5 -5 -10z"/>
<path d="M9488 6763 c12 -2 30 -2 40 0 9 3 -1 5 -23 4 -22 0 -30 -2 -17 -4z"/>
<path d="M3552 6565 c3 -3 -1 -36 -9 -73 -7 -37 -16 -82 -19 -99 l-7 -33 184
0 c206 0 196 -8 93 77 -54 45 -188 121 -225 128 -12 2 -20 2 -17 0z"/>
<path d="M7628 6483 c6 -2 18 -2 25 0 6 3 1 5 -13 5 -14 0 -19 -2 -12 -5z"/>
<path d="M3510 6305 l0 -25 243 0 242 1 -25 20 c-17 14 -32 19 -50 14 -67 -16
-209 -16 -295 -1 -116 20 -115 21 -115 -9z"/>
<path d="M7075 6310 c-17 -18 -16 -19 9 -26 33 -8 40 -2 31 25 -8 26 -17 26
-40 1z"/>
<path d="M2070 6290 c0 -5 7 -10 15 -10 8 0 15 5 15 10 0 6 -7 10 -15 10 -8 0
-15 -4 -15 -10z"/>
<path d="M370 6025 c0 -41 2 -45 25 -45 14 0 25 2 25 5 0 10 -40 85 -45 85 -3
0 -5 -20 -5 -45z"/>
<path d="M383 5933 c-8 -3 -13 -24 -13 -54 0 -49 1 -50 28 -47 21 2 28 9 30
32 7 60 -9 84 -45 69z"/>
<path d="M1050 5780 l0 -160 38 0 c20 0 53 5 72 10 23 7 36 7 38 0 2 -5 15
-10 28 -10 23 0 24 3 24 60 l0 60 384 0 383 0 7 61 c3 34 6 79 6 100 l0 39
-124 0 c-115 0 -124 -1 -129 -20 -7 -26 -37 -26 -44 1 -4 15 -11 19 -27 15
-11 -3 -62 -6 -112 -6 -88 0 -92 -1 -98 -23 -7 -27 -36 -43 -99 -52 -41 -6
-47 -5 -62 18 -13 20 -14 30 -5 46 11 21 9 21 -135 21 l-145 0 0 -160z"/>
<path d="M2073 5873 c4 -38 7 -83 7 -101 l0 -32 665 1 665 1 -6 39 c-6 35 -4
39 20 49 35 13 57 12 29 -2 -35 -17 -38 -40 -6 -65 28 -23 31 -23 340 -23 294
0 312 1 318 18 3 11 17 24 31 30 36 17 42 14 16 -8 -40 -33 -19 -41 106 -39
125 2 142 5 142 23 0 6 11 24 23 40 l24 29 158 1 c114 1 159 -2 162 -11 3 -7
-10 -15 -31 -19 -20 -3 -36 -10 -36 -15 0 -24 102 -60 115 -40 4 8 12 8 26 0
11 -5 41 -9 67 -7 45 3 47 4 53 38 6 35 14 29 21 -15 3 -19 12 -20 249 -23
l245 -2 33 34 33 34 -46 17 c-26 10 -56 15 -71 11 -17 -4 -41 2 -72 18 -27 13
-74 32 -105 42 -32 9 -56 19 -54 21 2 3 233 -59 390 -105 15 -4 10 -9 -25 -26
-51 -25 -61 -43 -22 -44 34 0 70 31 78 68 5 22 18 33 68 54 34 15 75 33 90 41
41 21 62 19 81 -10 23 -35 20 -40 -23 -40 -22 -1 -50 -6 -63 -13 -13 -6 -38
-15 -57 -20 l-34 -8 61 -29 c34 -16 57 -32 52 -35 -5 -3 67 -7 160 -9 157 -2
171 -1 177 16 14 39 57 83 119 124 35 24 64 46 64 51 0 4 -260 8 -577 8 -416
0 -574 -3 -563 -11 12 -9 11 -9 -5 -3 -11 4 -78 9 -150 12 -113 4 -128 2 -117
-11 17 -20 -8 -39 -45 -35 -22 2 -28 8 -27 26 l1 22 -186 0 c-148 -1 -190 -4
-205 -15 -28 -21 -148 -20 -192 1 -34 16 -118 16 -184 -1 -19 -5 -22 -4 -10 4
11 8 -71 11 -292 11 -257 0 -307 -2 -302 -14 7 -18 -46 -36 -109 -36 -47 0
-49 1 -45 25 l5 25 -181 0 c-132 0 -186 -3 -195 -12 -11 -10 -13 -10 -7 0 6 9
-14 12 -83 12 -49 0 -92 -4 -95 -9 -3 -5 -25 -5 -48 0 -24 4 -175 8 -337 9
l-294 0 6 -67z m1937 37 c-8 -5 -22 -9 -30 -9 -10 0 -8 3 5 9 27 12 43 12 25
0z m-83 -26 c-3 -3 -12 -4 -19 -1 -8 3 -5 6 6 6 11 1 17 -2 13 -5z m1648 -9
c-67 -17 -78 -17 -101 0 -17 13 -11 14 66 13 l85 0 -50 -13z m-1825 -45 c-123
-40 -239 -72 -205 -55 23 11 321 103 335 103 8 0 -50 -22 -130 -48z m-900 17
c0 -2 -10 -12 -22 -23 l-23 -19 19 23 c18 21 26 27 26 19z"/>
<path d="M3368 5933 c7 -3 16 -2 19 1 4 3 -2 6 -13 5 -11 0 -14 -3 -6 -6z"/>
<path d="M6346 5924 c-9 -8 -16 -12 -16 -9 0 11 -72 -35 -108 -69 -33 -31 -62
-75 -62 -96 0 -17 104 -11 173 10 36 11 98 37 139 57 103 51 147 60 236 51 42
-5 78 -11 81 -13 2 -3 4 -25 2 -49 -2 -51 10 -64 41 -42 12 9 32 16 43 16 18
-1 19 -1 3 -11 -10 -5 -18 -15 -18 -20 0 -6 21 1 48 16 26 15 106 60 177 99
l130 71 -254 3 c-252 2 -255 2 -280 -20 l-26 -23 19 23 19 22 -44 -1 c-24 0
-38 -3 -31 -6 18 -7 15 -31 -7 -42 -26 -15 -202 -52 -212 -45 -11 7 -11 55 0
73 9 15 51 7 51 -10 0 -6 5 -7 12 -3 19 12 -22 34 -63 34 -21 0 -45 -7 -53
-16z"/>
<path d="M7140 5879 c-58 -34 -135 -76 -172 -95 -38 -19 -68 -36 -68 -38 0 -2
98 -5 218 -5 166 -1 233 2 285 14 60 14 70 14 97 0 16 -8 47 -15 70 -15 l40 0
-16 25 c-9 14 -14 28 -11 32 3 3 31 2 62 -2 50 -6 55 -9 55 -32 0 -15 5 -23
13 -20 6 2 12 12 12 23 0 10 7 22 15 26 8 4 86 7 173 7 l157 1 0 35 c0 38 -28
75 -57 75 -9 0 -14 2 -11 5 10 10 111 -15 122 -30 6 -9 34 -22 61 -30 37 -10
43 -13 23 -14 -16 -1 -32 -9 -38 -21 -6 -11 -27 -31 -47 -44 -49 -34 -35 -37
118 -34 l124 3 1 35 c0 35 -1 35 -55 46 l-56 11 50 3 c43 2 46 3 20 9 -28 7
-28 8 15 12 25 3 48 2 51 -3 3 -5 19 -13 35 -18 l29 -8 -30 -2 c-30 -2 -29 -2
10 -16 l40 -14 -41 6 c-37 5 -42 3 -48 -18 -12 -48 -11 -49 77 -46 76 3 82 5
85 26 3 19 -1 22 -30 23 l-33 1 33 9 c32 10 34 12 30 50 -3 31 0 40 14 45 10
3 18 14 18 25 0 18 -8 19 -157 18 l-158 -1 125 -19 c69 -11 130 -21 135 -24
15 -7 -93 4 -247 25 -101 15 -185 19 -320 18 -195 -2 -196 -5 -11 -37 59 -10
97 -19 83 -20 -14 -1 -99 13 -188 29 -150 27 -182 30 -380 30 l-217 0 -105
-61z m833 44 c-7 -2 -19 -2 -25 0 -7 3 -2 5 12 5 14 0 19 -2 13 -5z m272 -48
c67 -17 26 -18 -50 -1 -37 9 -49 14 -30 14 17 0 53 -6 80 -13z m265 -55 c11
-8 7 -9 -15 -4 -37 8 -45 14 -19 14 10 0 26 -5 34 -10z"/>
<path d="M8673 5933 l67 -4 0 -49 c0 -27 -4 -51 -9 -55 -6 -3 -40 -1 -77 5
-36 6 -67 9 -69 8 -1 -2 0 -24 3 -49 l4 -46 96 -1 c97 0 96 6 -3 24 -27 5 -33
9 -19 11 12 2 79 -5 148 -16 117 -19 169 -21 708 -21 539 0 583 1 602 18 20
16 20 16 7 -1 -12 -16 -12 -17 5 -10 19 7 72 61 75 76 1 4 2 10 3 15 1 4 12
23 24 42 35 56 32 60 -59 60 -61 0 -79 -3 -73 -12 6 -10 4 -10 -7 0 -10 9
-173 12 -754 10 -407 -1 -710 -3 -672 -5z m1468 -40 c13 -16 12 -17 -3 -4 -10
7 -18 15 -18 17 0 8 8 3 21 -13z m-227 -29 c24 -23 20 -31 -21 -38 -62 -10
-104 -7 -119 8 -19 20 -18 25 9 36 37 15 114 12 131 -6z m280 -44 c-6 -6 -10
-3 -10 10 0 13 4 16 10 10 7 -7 7 -13 0 -20z"/>
<path d="M10356 5913 c-7 -16 -17 -42 -20 -60 -7 -30 -9 -31 -33 -20 -23 10
-28 8 -49 -16 -13 -16 -24 -25 -24 -21 0 3 -7 1 -15 -6 -8 -7 -15 -18 -15 -25
0 -16 63 -32 68 -17 2 6 16 7 37 2 20 -4 35 -4 37 2 2 6 14 5 31 -1 37 -14
208 -15 187 -1 -13 9 -13 11 0 20 8 5 29 10 45 10 17 0 37 -5 45 -10 13 -9 13
-11 0 -20 -11 -7 3 -10 48 -9 l63 2 -7 41 c-3 23 -7 41 -8 42 0 0 -19 5 -41
10 -31 7 -41 14 -43 33 -3 21 -1 23 30 19 18 -3 41 -8 51 -13 14 -6 17 -2 17
29 l0 36 -195 0 -194 0 -15 -27z"/>
<path d="M10785 5931 c-6 -11 -1 -81 11 -159 l5 -33 157 1 c86 1 293 1 460 1
l302 -1 0 -26 c0 -23 3 -25 33 -20 l32 5 -32 -11 c-29 -10 -33 -15 -33 -47 l0
-36 88 -23 c48 -12 90 -22 95 -22 4 0 7 18 7 40 0 29 -4 40 -15 40 -9 0 -15 9
-15 25 0 16 6 25 15 25 21 0 19 28 -2 33 -17 4 -17 5 0 6 15 1 17 12 17 79 l0
78 -162 13 c-313 26 -286 26 -305 2 -20 -23 -182 -105 -191 -97 -3 3 1 6 8 6
24 0 -6 23 -53 41 -28 11 -43 23 -45 38 -3 19 1 21 43 21 39 0 52 -5 75 -31
28 -29 30 -29 57 -15 42 23 77 56 69 64 -13 12 -613 15 -621 3z m420 -151
c-22 -10 -44 -18 -50 -18 -5 0 8 8 30 19 22 10 45 18 50 18 6 0 -8 -9 -30 -19z"/>
<path d="M11512 5935 c5 -5 315 -35 370 -35 31 0 35 3 31 20 -5 19 -14 20
-206 20 -110 0 -198 -2 -195 -5z"/>
<path d="M12658 5827 c-7 -7 -33 -13 -58 -13 -25 0 -81 -4 -125 -7 -44 -4 -71
-3 -61 1 20 9 20 9 0 14 -10 2 -58 3 -106 0 -66 -3 -88 -8 -88 -18 0 -10 14
-14 43 -15 23 -1 33 -3 22 -6 -11 -2 -30 -6 -42 -9 -35 -7 -31 -44 5 -44 l27
-1 -27 -15 c-28 -14 -28 -16 -28 -113 0 -96 1 -99 24 -105 20 -5 191 -25 219
-26 4 0 7 16 7 35 l0 35 120 0 120 0 0 85 c0 81 -1 85 -19 75 -11 -5 -29 -22
-40 -36 -20 -26 -24 -27 -90 -21 -38 3 -86 14 -107 25 l-38 19 25 16 c27 17
160 47 211 47 47 0 58 11 56 53 -1 40 -23 50 -50 24z m-291 -33 c-3 -3 -12 -4
-19 -1 -8 3 -5 6 6 6 11 1 17 -2 13 -5z m75 -214 c-1 -13 -3 -25 -5 -25 -1 -1
-35 -5 -74 -9 -85 -7 -95 5 -25 29 26 9 54 21 62 25 26 15 45 6 42 -20z"/>
<path d="M5700 5756 c0 -8 11 -14 28 -14 36 0 50 10 26 19 -31 12 -54 10 -54
-5z"/>
<path d="M1050 5555 c0 -30 4 -55 8 -55 15 0 82 76 82 93 0 13 -9 17 -45 17
l-45 0 0 -55z"/>
<path d="M1167 5596 c-7 -19 12 -34 51 -42 30 -6 32 -5 32 25 0 29 -2 31 -39
31 -24 0 -41 -5 -44 -14z"/>
<path d="M11830 5520 c-30 -11 -67 -19 -82 -19 l-28 -1 0 -116 0 -117 77 7
c42 3 86 6 98 6 18 0 21 5 17 30 -2 17 -8 30 -13 30 -12 0 -12 33 0 46 9 9 14
57 12 122 -1 37 -4 37 -81 12z"/>
<path d="M2380 5480 c-17 -5 -19 -8 -7 -9 9 -1 17 -6 17 -12 0 -8 -20 -10 -69
-5 -45 5 -71 3 -76 -3 -4 -8 27 -11 96 -11 89 0 100 2 89 15 -10 12 -10 15 4
15 9 0 16 5 16 10 0 12 -34 12 -70 0z"/>
<path d="M3150 5479 c0 -5 11 -8 25 -7 14 1 25 5 25 9 0 4 -11 7 -25 7 -14 0
-25 -4 -25 -9z"/>
<path d="M4635 5474 c-156 -24 -154 -32 8 -33 81 -1 147 3 147 7 0 14 -35 42
-51 41 -8 -1 -54 -7 -104 -15z"/>
<path d="M4806 5467 c16 -22 27 -27 74 -28 34 -1 44 -4 25 -6 -30 -5 -60 -23
-37 -23 7 0 30 -16 52 -36 26 -24 47 -35 59 -31 21 5 118 -15 191 -39 89 -30
166 -79 242 -154 68 -68 81 -76 108 -72 39 6 47 18 15 26 -14 4 -25 13 -25 22
0 20 37 10 63 -17 21 -22 109 -27 124 -6 5 6 9 95 9 197 l-1 185 -31 3 c-28 3
-31 0 -47 -52 -19 -59 -52 -91 -104 -102 -26 -5 -101 16 -253 72 -44 16 -131
15 -172 -1 -13 -5 -18 -2 -18 8 0 13 -14 17 -67 20 l-68 3 78 2 c42 1 77 6 77
11 0 12 -101 30 -215 38 l-98 6 19 -26z"/>
<path d="M7075 5470 c-3 -11 -3 -24 0 -30 3 -5 1 -10 -5 -10 -15 0 -82 -149
-76 -167 3 -8 2 -11 -4 -8 -5 3 -18 -14 -28 -39 -37 -82 -37 -84 -1 -94 18 -4
34 -13 37 -20 4 -12 -12 -16 -63 -13 -28 1 -32 -4 -57 -59 -23 -52 -24 -60
-10 -61 13 0 12 -2 -4 -9 -17 -7 -87 -143 -131 -258 -4 -10 10 -12 63 -10 63
3 69 5 72 26 3 19 9 22 48 22 39 0 46 -3 54 -26 14 -36 13 -42 -12 -46 -12 -2
-23 -7 -25 -13 -6 -22 16 -35 77 -44 l65 -10 -62 4 c-35 3 -63 3 -63 1 0 -2 7
-20 15 -41 l16 -37 20 26 c19 24 27 26 97 26 64 0 210 -20 405 -56 42 -8 42
-10 2 75 -12 25 -30 68 -41 94 l-19 48 -59 -7 c-46 -5 -57 -3 -54 7 5 15 56
31 81 25 9 -2 17 -2 17 0 0 10 -36 81 -49 97 -8 9 -15 27 -17 40 -1 12 -16 53
-33 90 -24 54 -35 67 -48 63 -25 -7 -134 -26 -147 -26 -18 1 68 30 89 30 11 0
27 4 35 10 12 7 12 12 -4 29 -15 17 -16 24 -7 35 17 20 7 34 -31 44 l-32 8 22
20 21 19 -40 92 c-32 72 -47 94 -67 102 -25 9 -26 9 -4 10 22 1 22 2 7 31 -18
34 -41 39 -50 10z m-59 -485 c-20 -15 -63 -20 -90 -9 -31 12 -4 24 52 24 52
-1 55 -2 38 -15z m16 -114 c-1 -19 -4 -36 -6 -38 -9 -10 -66 12 -66 25 0 24
32 53 54 50 17 -2 20 -9 18 -37z m202 7 c13 -21 8 -26 -32 -34 -31 -6 -32 -5
-32 25 0 29 3 32 26 29 15 -2 32 -11 38 -20z m-54 -204 c22 -9 40 -20 40 -24
0 -4 -27 -13 -60 -20 -46 -10 -67 -10 -85 -2 -33 15 -32 38 3 50 39 15 57 14
102 -4z"/>
<path d="M12220 5291 c0 -134 4 -201 10 -201 6 0 24 7 40 15 45 23 36 10 -10
-16 -47 -26 -51 -46 -12 -52 l27 -4 -27 -2 c-22 -1 -28 -6 -28 -24 0 -13 2
-26 6 -29 3 -3 42 3 87 15 96 23 326 36 292 15 -11 -6 -28 -22 -38 -34 -29
-37 -174 -74 -294 -74 l-53 0 0 -124 0 -123 74 -5 c170 -11 156 -88 -16 -88
l-58 0 0 -99 0 -98 89 5 c112 6 141 0 141 -32 0 -14 -10 -30 -22 -38 -32 -20
-108 -38 -162 -38 l-46 0 0 -97 0 -98 43 -28 c23 -16 33 -26 22 -22 -62 23
-88 12 -45 -18 l20 -14 -20 -18 c-17 -15 -20 -31 -20 -92 l0 -74 22 15 c28 20
68 21 68 2 0 -7 -12 -22 -27 -31 -21 -14 -30 -15 -45 -6 -16 10 -18 8 -18 -19
0 -17 5 -30 13 -30 38 1 450 85 468 96 5 3 9 166 9 370 l0 364 -32 0 c-17 0
-47 5 -65 12 -52 19 -39 41 34 57 l63 14 0 342 0 341 -71 -4 c-44 -3 -75 0
-82 7 -8 8 11 11 71 11 l82 0 0 31 0 32 -120 -6 -120 -5 0 32 0 32 -110 12
c-60 7 -116 15 -125 18 -13 5 -15 -18 -15 -195z m250 -105 c0 -7 -112 -47
-117 -43 -2 2 20 13 49 25 55 22 68 25 68 18z m-92 -163 c-10 -2 -26 -2 -35 0
-10 3 -2 5 17 5 19 0 27 -2 18 -5z m111 -479 c27 -6 31 -10 31 -41 0 -21 -4
-32 -10 -28 -6 4 -41 10 -78 13 -58 6 -67 10 -67 27 0 16 9 21 40 26 22 3 43
7 46 8 4 0 21 -2 38 -5z m125 -185 c-10 -17 -86 -49 -116 -49 -23 0 -28 4 -28
24 0 21 5 25 38 29 81 8 113 7 106 -4z m-219 -382 c25 -19 11 -37 -29 -37 -39
0 -62 20 -44 38 16 16 50 15 73 -1z m76 -49 c12 -18 16 -28 9 -21 -7 7 -27 9
-49 6 l-36 -6 24 27 c14 14 26 26 27 26 1 0 13 -15 25 -32z m-127 -32 c-17 -7
-41 -17 -55 -21 -24 -8 -24 -8 -5 14 13 14 31 21 55 21 l36 -1 -31 -13z"/>
<path d="M2560 5461 l-35 -20 125 0 c123 1 124 1 80 15 -78 25 -131 27 -170 5z"/>
<path d="M3140 5450 c0 -5 14 -10 31 -10 17 0 28 4 24 10 -3 6 -17 10 -31 10
-13 0 -24 -4 -24 -10z"/>
<path d="M8406 5418 c-10 -37 -8 -38 49 -38 54 0 55 0 55 30 0 29 -1 30 -49
30 -42 0 -49 -3 -55 -22z"/>
<path d="M8530 5410 c0 -31 3 -35 66 -79 43 -30 64 -80 64 -150 0 -29 2 -31
38 -31 61 0 82 10 82 36 0 25 15 33 23 12 3 -10 7 -10 20 1 20 16 22 8 5 -18
-10 -16 -5 -34 26 -108 21 -48 66 -153 101 -233 117 -275 100 -247 152 -254
25 -3 63 -6 84 -6 41 0 56 -19 17 -21 -13 0 4 -7 36 -15 33 -8 62 -17 65 -20
8 -9 -77 4 -139 20 -46 12 -48 12 -40 -5 7 -12 6 -22 -5 -32 -17 -18 -10 -27
23 -27 23 0 24 -2 19 -57 -3 -45 1 -73 21 -126 24 -65 27 -68 52 -63 25 5 89
10 250 21 46 3 58 2 43 -5 -13 -5 -64 -12 -115 -16 -72 -6 -96 -11 -106 -25
-6 -9 -25 -20 -41 -24 -28 -6 -29 -8 -19 -36 13 -36 20 -41 50 -30 12 4 55 5
93 1 39 -4 58 -8 44 -9 -20 -1 -28 -7 -31 -25 -3 -14 -1 -29 5 -35 6 -6 -11
-14 -47 -22 -42 -9 -55 -16 -51 -27 3 -7 5 -16 5 -18 0 -2 19 -5 43 -5 l42 -2
-37 -6 -37 -6 61 -142 c34 -79 65 -143 69 -143 9 0 240 142 369 226 l75 49
-185 5 -185 6 198 2 c161 2 204 5 230 18 18 9 35 21 38 27 11 16 -10 62 -41
92 l-29 28 -27 -61 c-15 -34 -30 -62 -34 -62 -5 0 -30 51 -56 114 -48 117 -64
135 -117 137 l-22 0 23 11 c27 13 29 50 6 107 -15 39 -34 51 -81 51 -13 0 -37
9 -55 20 -39 24 -33 24 47 6 33 -8 60 -14 61 -13 1 1 -14 38 -33 82 -19 44
-38 90 -44 103 -7 18 -14 22 -32 17 -21 -6 -21 -5 -4 9 18 14 15 22 -49 173
-37 87 -72 164 -77 171 -5 6 -22 12 -38 12 -36 0 -38 23 -4 36 l25 9 -25 53
c-24 52 -45 61 -45 21 0 -15 -7 -19 -32 -19 -18 0 -57 -11 -86 -25 -30 -14
-61 -25 -70 -26 -38 -1 25 -18 71 -18 26 -1 47 -5 47 -11 0 -5 -4 -10 -10 -10
-5 0 -10 -15 -10 -33 0 -37 -18 -50 -82 -62 -26 -5 -38 -2 -48 10 -13 15 -11
20 16 44 17 14 39 32 50 39 16 11 10 12 -40 7 -74 -7 -111 -24 -111 -50 0 -17
-9 -21 -60 -27 -33 -3 -61 -5 -63 -4 -1 2 27 18 63 36 55 28 63 35 55 51 -15
28 -13 29 39 29 41 0 57 6 98 36 26 20 53 41 58 46 7 7 -37 8 -127 3 -131 -7
-178 -3 -178 14 0 14 51 29 109 34 29 2 57 10 61 18 7 10 25 11 98 1 49 -7
104 -12 121 -12 37 0 37 2 -6 98 -22 51 -26 55 -38 39 -10 -13 -24 -17 -52
-15 -31 2 -39 7 -41 26 -3 16 2 22 17 22 33 0 72 22 66 38 -3 7 -5 18 -5 23 0
5 -150 9 -365 9 l-365 0 0 -30z m683 -562 c4 1 7 -2 7 -7 0 -6 25 -26 55 -46
30 -21 58 -42 62 -48 7 -11 5 -10 -74 40 -29 18 -56 33 -60 33 -4 0 -16 12
-27 26 l-18 26 23 -13 c13 -7 27 -12 32 -11z m140 -335 c-7 -2 -19 -2 -25 0
-7 3 -2 5 12 5 14 0 19 -2 13 -5z m44 -9 c-3 -3 -12 -4 -19 -1 -8 3 -5 6 6 6
11 1 17 -2 13 -5z m-104 -34 c20 0 37 -4 37 -10 0 -11 -108 -14 -134 -4 -32
12 -16 27 22 20 20 -3 54 -6 75 -6z m426 -314 c-6 -6 -180 -36 -199 -35 -21 2
138 36 174 38 16 0 27 -1 25 -3z"/>
<path d="M10467 5433 c-3 -5 -19 -43 -37 -86 -36 -87 -35 -105 5 -197 l23 -55
21 45 c11 25 21 50 21 56 0 6 6 16 13 22 9 8 11 -15 9 -114 -3 -111 -1 -132
21 -197 14 -39 28 -87 32 -106 7 -32 9 -33 44 -28 l37 5 -19 -40 c-18 -37 -19
-47 -9 -132 11 -87 9 -115 -13 -170 -7 -15 -5 -17 13 -12 30 10 135 26 139 22
2 -2 -20 -9 -49 -16 -72 -17 -158 -50 -158 -60 0 -5 16 -14 36 -20 19 -7 33
-14 30 -17 -3 -3 -25 2 -50 10 -49 17 -55 13 -48 -35 3 -18 13 -33 26 -38 21
-9 21 -9 -1 -9 -35 -1 -30 -42 8 -70 36 -27 32 -40 -5 -16 l-26 17 0 -36 c0
-20 0 -39 0 -43 0 -4 6 -8 13 -8 6 0 28 -4 47 -8 88 -19 120 -31 117 -41 -5
-16 -73 -19 -125 -6 -36 9 -47 8 -54 -2 -4 -7 -8 -80 -7 -161 l1 -148 31 5
c30 5 31 5 6 -4 -26 -11 -26 -12 -32 -141 -7 -147 -19 -199 -56 -236 -38 -38
-86 -55 -173 -61 -65 -4 -78 -8 -78 -22 0 -35 89 -41 560 -38 l445 3 -75 41
c-112 62 -180 84 -263 86 -71 1 -71 1 -33 13 37 11 38 11 15 23 -22 10 -20 11
14 6 48 -8 167 14 174 32 3 8 2 29 -1 48 l-7 34 -137 7 c-76 4 -151 13 -167
19 -27 11 -26 13 81 58 60 25 135 54 167 63 49 14 57 20 57 41 0 21 -4 24 -37
24 -21 0 -48 3 -60 6 -39 11 -14 24 43 24 l54 0 0 63 0 64 -176 -59 c-97 -32
-182 -58 -188 -57 -6 0 41 18 104 40 208 72 231 82 223 90 -5 5 -58 10 -118
12 l-110 3 133 2 132 2 0 124 0 124 -62 10 c-155 26 -155 26 -188 -1 -43 -37
-71 -43 -87 -22 -12 17 -14 17 -31 2 -10 -9 -24 -17 -31 -17 -7 0 -11 -6 -8
-13 4 -10 -5 -13 -30 -13 -32 1 -33 2 -14 14 128 86 127 82 28 108 -28 7 -38
11 -22 9 17 -3 65 -8 108 -11 76 -7 91 -2 65 24 -19 19 12 15 57 -8 59 -30
151 -60 185 -60 30 0 30 0 30 60 0 33 -3 60 -7 60 -5 0 -35 -7 -68 -14 -51
-13 -61 -13 -68 -1 -5 10 -17 12 -37 8 -25 -5 -30 -2 -30 14 0 17 11 21 95 30
52 7 99 14 105 18 5 3 10 26 10 51 l0 44 -57 1 -58 1 54 12 c30 6 56 17 59 24
5 15 26 18 -175 -21 -95 -19 -173 -30 -173 -25 0 11 29 57 53 85 21 24 53 23
93 -3 19 -13 32 -14 74 -5 28 6 69 11 90 11 61 0 53 27 -30 102 -70 62 -110
123 -110 168 0 22 -3 22 -50 17 l-49 -6 16 33 c14 31 14 41 -7 142 -17 82 -21
126 -16 178 5 58 3 72 -11 90 l-18 21 23 -19 22 -19 0 64 c0 35 -4 69 -8 75
-20 29 -182 60 -166 32 6 -10 4 -10 -7 0 -14 13 -125 17 -132 5z m381 -1289
c14 -4 22 -14 22 -29 0 -17 -7 -24 -31 -29 -47 -9 -53 -8 -79 16 l-24 23 39
12 c49 14 46 14 73 7z m-108 -54 c41 -21 60 -40 38 -40 -13 1 -97 60 -84 60 4
0 24 -9 46 -20z m43 -650 c16 -7 8 -8 -28 -3 -73 9 -113 24 -47 18 29 -3 62
-10 75 -15z m54 -16 c-3 -3 -12 -4 -19 -1 -8 3 -5 6 6 6 11 1 17 -2 13 -5z"/>
<path d="M10793 5378 c2 -68 3 -68 90 -83 21 -3 37 -12 37 -19 0 -17 -31 -26
-87 -26 l-43 0 0 -44 c0 -72 20 -196 41 -250 30 -81 28 -80 90 -52 30 13 70
27 89 30 23 4 15 -2 -26 -17 -73 -26 -90 -39 -98 -73 -9 -35 27 -95 103 -171
l59 -60 4 321 c3 253 1 332 -10 372 -14 51 -14 51 -65 61 -38 7 -41 9 -12 6
32 -3 38 -2 28 8 -18 18 -16 34 2 19 8 -7 40 -22 71 -35 l57 -23 44 19 c31 13
68 19 119 19 l74 0 0 30 0 30 -284 0 -284 0 1 -62z m60 15 c-7 -2 -19 -2 -25
0 -7 3 -2 5 12 5 14 0 19 -2 13 -5z m50 -10 c-7 -2 -19 -2 -25 0 -7 3 -2 5 12
5 14 0 19 -2 13 -5z m-62 -190 c13 -16 12 -17 -3 -4 -17 13 -22 21 -14 21 2 0
10 -8 17 -17z"/>
<path d="M2132 5400 c-64 -37 -68 -61 -15 -92 37 -22 31 -35 -12 -24 -15 4
-27 16 -31 31 -7 28 -24 24 -24 -6 0 -21 -16 -26 -23 -6 -3 8 -15 2 -35 -17
-17 -16 -29 -32 -27 -36 2 -4 -11 -23 -30 -43 -19 -20 -37 -48 -41 -61 -3 -14
-12 -27 -19 -30 -15 -5 -41 -80 -51 -143 -6 -41 -6 -43 32 -60 22 -10 41 -21
42 -25 2 -5 10 -8 17 -8 17 0 34 -30 28 -47 -8 -23 -29 -14 -76 34 l-47 47 0
-86 0 -85 88 -8 c136 -11 195 -24 87 -19 -49 3 -107 7 -129 10 -38 5 -38 4
-32 -23 4 -15 24 -64 46 -109 44 -91 132 -194 224 -261 l58 -43 132 1 c136 1
200 10 161 22 -11 3 -63 9 -115 12 -52 4 -103 9 -113 12 -18 5 -18 6 2 19 38
27 170 54 264 54 l90 0 -19 21 c-10 12 -90 69 -176 126 -87 57 -158 106 -158
109 0 9 88 -44 174 -105 44 -31 116 -76 160 -101 84 -47 93 -60 77 -102 -8
-22 -18 -26 -68 -32 -72 -9 -93 -15 -93 -27 0 -5 60 -9 140 -9 77 0 140 4 140
9 0 5 -13 14 -29 21 -36 14 -66 46 -53 54 5 3 15 -1 22 -9 7 -9 33 -29 57 -45
l44 -30 191 0 191 0 -19 22 c-29 33 -168 134 -239 174 -53 29 -68 33 -84 24
-41 -21 -181 -78 -177 -71 3 4 43 25 90 45 48 21 86 41 86 45 0 3 -51 33 -113
66 -103 55 -120 60 -212 72 -85 10 -89 12 -27 8 39 -2 72 -2 72 0 0 3 -14 12
-32 21 -22 12 -44 14 -78 10 -42 -6 -48 -4 -53 13 -3 11 -21 27 -41 35 -35 15
-49 36 -23 36 7 0 -22 35 -64 78 -66 67 -80 88 -94 137 -16 55 -16 102 1 163
5 19 3 22 -21 22 -40 0 -25 23 23 35 23 5 52 22 65 36 27 32 124 109 112 90
-6 -11 -4 -13 11 -6 99 41 242 31 373 -26 39 -16 56 -20 59 -11 4 13 136 17
167 6 14 -6 14 -8 -2 -26 -22 -25 -9 -47 38 -63 l34 -12 -37 -23 c-21 -12 -38
-24 -38 -27 0 -3 14 -22 31 -42 16 -20 38 -46 48 -58 13 -15 28 -21 54 -19 44
2 48 -11 8 -25 l-29 -10 28 -69 c15 -38 34 -94 41 -124 12 -54 13 -56 46 -56
l33 0 -5 203 c-11 411 -15 467 -34 467 -23 0 -49 -20 -64 -50 -27 -54 -113
-47 -249 21 l-57 29 -313 0 -313 0 -53 -30z m-16 -646 c30 -19 54 -39 54 -44
0 -13 -67 -13 -74 -1 -4 5 4 7 15 4 42 -11 13 21 -49 56 -34 19 -62 38 -62 43
0 10 43 -11 116 -58z m283 -70 c10 -9 -186 -3 -199 7 -10 7 17 8 90 3 58 -4
107 -8 109 -10z"/>
<path d="M4420 5423 c-104 -39 -290 -140 -290 -158 0 -13 52 -45 73 -45 8 0
31 -16 51 -35 l36 -34 -55 25 c-30 14 -60 24 -65 22 -5 -2 4 -23 21 -47 16
-25 32 -55 35 -67 4 -14 16 -24 36 -28 93 -18 168 7 123 41 -19 15 -19 15 3 8
19 -5 34 3 80 47 32 29 71 63 87 75 l30 22 -60 0 c-73 1 -105 19 -105 61 0 39
47 93 81 92 37 0 110 -36 147 -73 l33 -32 52 16 c68 20 103 27 150 29 20 1 37
4 37 7 0 4 -22 23 -50 44 l-49 37 -193 -1 c-106 0 -200 -3 -208 -6z"/>
<path d="M8353 5410 c-1 -11 2 -20 8 -20 5 0 9 9 9 20 0 11 -4 20 -8 20 -4 0
-8 -9 -9 -20z"/>
<path d="M370 5224 c0 -172 2 -188 21 -215 34 -48 55 -54 90 -25 30 26 110 74
224 136 85 46 93 55 64 72 -31 19 -325 181 -366 202 l-33 17 0 -187z"/>
<path d="M11056 5342 c-3 -5 1 -18 9 -28 13 -19 14 -18 37 4 18 18 19 22 6 22
-9 0 -23 3 -31 6 -8 3 -18 1 -21 -4z"/>
<path d="M1050 5291 c0 -39 2 -42 23 -35 12 4 51 13 87 19 l65 12 -39 17 c-21
10 -60 20 -87 23 l-49 6 0 -42z"/>
<path d="M11788 5263 l-68 -4 0 -239 c0 -132 4 -240 8 -240 5 0 17 6 28 14 12
10 23 11 31 5 6 -6 37 -11 70 -12 l58 -2 -1 33 c-1 17 -2 44 -3 58 l-1 26 -52
-37 -53 -37 53 48 c52 48 52 50 52 106 l0 57 -42 5 c-88 12 -91 13 -25 15 l67
1 1 88 c0 48 2 95 4 105 3 13 -3 17 -28 15 -18 -1 -62 -3 -99 -5z"/>
<path d="M3994 5158 c-41 -39 -74 -74 -74 -78 0 -4 37 -8 82 -9 115 -3 112
-11 -5 -11 l-96 0 -34 -42 c-53 -65 -88 -128 -81 -140 4 -6 3 -8 -3 -5 -5 3
-20 -15 -32 -40 l-23 -47 24 -18 c13 -10 52 -34 88 -53 74 -39 74 -41 6 -20
-63 19 -66 19 -66 -4 0 -22 -16 -36 -52 -45 -26 -6 -28 -4 -29 26 0 28 -4 23
-24 -34 -27 -77 -55 -230 -55 -299 l0 -48 113 -4 112 -3 -114 -2 -114 -2 6
-41 c3 -22 7 -42 9 -45 2 -2 47 3 98 12 52 8 104 13 115 12 11 -2 -33 -12 -99
-22 l-118 -20 6 -35 c3 -20 6 -42 6 -48 0 -26 21 -12 56 37 43 61 70 69 139
45 49 -16 54 -16 85 0 18 9 74 30 124 46 128 41 125 39 101 50 -19 9 -19 9 1
6 37 -7 51 14 56 84 3 37 3 71 -1 76 -3 5 -73 20 -156 33 -82 13 -143 25 -134
27 9 2 70 -5 136 -17 165 -28 163 -28 163 16 0 67 31 235 61 326 l29 90 -29
37 c-17 21 -33 49 -36 64 -7 27 -8 27 -95 40 -14 3 -7 5 18 6 23 0 42 5 42 11
0 5 -11 34 -24 63 -23 53 -65 97 -93 97 -9 0 -48 -32 -89 -72z m86 -533 c19
-7 28 -14 20 -14 -8 0 -28 6 -45 14 -39 17 -21 18 25 0z m-377 -92 c-7 -2 -21
-2 -30 0 -10 3 -4 5 12 5 17 0 24 -2 18 -5z m60 -10 c-7 -2 -19 -2 -25 0 -7 3
-2 5 12 5 14 0 19 -2 13 -5z m102 -13 c27 -7 27 -8 5 -8 -14 0 -38 4 -55 8
-27 7 -27 8 -5 8 14 0 39 -4 55 -8z m248 -247 c-7 -2 -19 -2 -25 0 -7 3 -2 5
12 5 14 0 19 -2 13 -5z m-46 -9 c-3 -3 -12 -4 -19 -1 -8 3 -5 6 6 6 11 1 17
-2 13 -5z m-54 -11 c-7 -2 -21 -2 -30 0 -10 3 -4 5 12 5 17 0 24 -2 18 -5z
m-73 -13 c-14 -4 -36 -8 -50 -8 -22 0 -22 1 5 8 17 4 39 8 50 8 16 0 15 -2 -5
-8z"/>
<path d="M1223 5199 c-6 -20 -11 -21 -89 -16 l-83 5 -1 -613 0 -612 56 -64
c79 -90 124 -132 132 -124 4 4 8 222 10 486 l3 479 -28 11 -28 11 28 22 27 22
0 207 c0 143 -3 207 -11 207 -6 0 -13 -10 -16 -21z"/>
<path d="M10313 5067 c-34 -83 -81 -198 -104 -255 -35 -84 -41 -107 -32 -122
10 -15 9 -19 -10 -24 -17 -4 -31 -28 -60 -101 l-38 -95 31 -26 c38 -32 33 -41
-10 -19 -37 19 -33 21 -53 -27 -16 -37 -15 -38 6 -39 21 -1 21 -1 -2 -8 -14
-4 -27 -13 -29 -20 -4 -11 4 -13 34 -8 22 4 51 7 66 7 20 0 28 7 37 31 6 17 8
36 4 42 -3 5 -2 7 4 4 8 -5 43 51 43 68 0 3 -17 13 -37 24 -21 11 -34 20 -30
21 4 0 22 -7 39 -16 25 -13 32 -14 39 -2 12 18 11 35 -1 43 -5 3 -10 21 -10
40 0 29 4 35 34 46 38 14 34 6 140 260 37 86 66 162 66 169 0 17 -54 160 -60
160 -3 0 -33 -69 -67 -153z"/>
<path d="M8740 5109 c-14 -11 -37 -32 -52 -45 l-28 -24 0 -234 0 -235 23 -4
22 -4 -22 -2 -22 -1 0 -235 c0 -129 3 -235 7 -235 5 0 31 7 59 15 l51 15 5
213 c3 116 5 226 3 242 -2 17 -4 42 -4 57 -1 16 -9 28 -19 31 -17 4 -17 5 0 6
19 1 19 5 17 121 -1 41 -5 76 -11 78 -5 2 -2 10 6 19 13 12 15 39 14 129 -1
122 -5 129 -49 93z m-43 -425 c-3 -3 -12 -4 -19 -1 -8 3 -5 6 6 6 11 1 17 -2
13 -5z"/>
<path d="M5673 5062 c-13 -2 -23 -8 -23 -13 0 -5 -24 -9 -52 -9 -29 0 -58 -4
-64 -8 -7 -5 3 -36 31 -94 34 -72 44 -85 55 -75 12 10 12 9 1 -5 -10 -13 -10
-25 0 -57 12 -42 18 -44 77 -25 15 5 15 131 0 151 -5 6 -5 14 -1 16 8 5 10
115 2 120 -2 2 -14 1 -26 -1z"/>
<path d="M4255 5029 c-7 -10 41 -89 54 -89 7 0 51 80 51 93 0 11 -98 8 -105
-4z"/>
<path d="M370 4966 c0 -42 2 -47 15 -36 19 16 19 41 0 66 -13 18 -14 15 -15
-30z"/>
<path d="M10530 4795 c0 -66 3 -72 30 -56 12 8 12 17 -3 65 -10 31 -20 56 -23
56 -2 0 -4 -29 -4 -65z"/>
<path d="M11752 4758 c-41 -25 -42 -48 -3 -48 42 0 61 9 61 30 0 33 -23 40
-58 18z"/>
<path d="M5650 4740 c-11 -7 -5 -10 23 -10 20 0 37 5 37 10 0 13 -40 13 -60 0z"/>
<path d="M10526 4623 c-9 -129 -6 -235 7 -230 6 2 24 28 41 58 27 47 31 64 31
129 0 90 -18 140 -50 140 -21 0 -23 -5 -29 -97z"/>
<path d="M11876 4678 c-9 -12 -16 -30 -16 -40 0 -25 -50 -24 -83 2 -39 31 -57
26 -57 -15 l0 -34 53 4 c54 5 48 1 -15 -10 l-38 -6 0 -119 0 -119 91 -51 c50
-28 93 -49 96 -47 2 3 5 107 6 231 2 235 -2 255 -37 204z m2 -75 c-10 -2 -26
-2 -35 0 -10 3 -2 5 17 5 19 0 27 -2 18 -5z"/>
<path d="M6714 4642 c-9 -5 -94 -180 -131 -269 -2 -6 4 -13 14 -16 16 -4 15
-5 -3 -6 -15 -1 -29 -22 -61 -93 l-42 -93 45 -3 c24 -2 44 -6 44 -10 0 -4 -21
-6 -48 -4 l-47 4 -48 -107 c-26 -59 -46 -109 -44 -112 3 -2 32 -8 67 -14 34
-5 81 -17 103 -26 31 -12 82 -18 188 -20 l146 -4 1 37 c1 20 4 39 6 42 3 2 31
11 63 18 87 21 219 18 297 -6 88 -28 186 -104 162 -127 -4 -4 -37 -7 -72 -7
-35 1 -64 1 -64 -1 0 -1 9 -24 21 -50 17 -39 24 -46 42 -42 55 13 178 29 183
24 3 -3 -16 -9 -43 -13 -26 -4 -64 -13 -83 -20 l-35 -13 30 -1 c17 -1 25 -4
18 -6 -7 -3 -9 -12 -6 -20 3 -9 -2 -15 -13 -16 -11 0 33 -4 96 -8 128 -7 207
-33 217 -70 5 -17 14 -20 67 -21 33 -1 50 -3 36 -6 -107 -16 -109 -18 -33 -39
l48 -13 -40 -1 c-59 -2 -15 -18 53 -19 56 -1 57 -2 42 -32 -10 -17 -23 -19
-158 -20 -81 0 -141 -3 -134 -6 6 -2 10 -9 6 -14 -3 -5 7 -4 21 1 34 13 68 13
60 0 -4 -6 11 -10 37 -11 40 -1 41 -2 13 -9 -16 -4 -67 -8 -112 -9 -103 -1
-176 -17 -198 -41 -17 -19 -17 -20 6 -29 13 -5 65 -25 114 -45 l90 -37 69 18
c64 16 69 16 81 0 10 -14 30 -17 129 -17 70 0 116 4 116 10 0 5 -19 23 -42 40
-47 34 -46 36 7 14 47 -19 57 -10 53 47 l-3 44 -90 3 c-49 2 -93 6 -97 10 -4
4 35 5 87 4 52 -2 95 -2 95 1 0 3 -18 40 -41 81 -39 72 -42 76 -77 78 l-37 1
33 4 c17 2 32 6 32 9 0 2 -14 36 -32 74 l-31 71 -86 -5 -86 -5 80 10 c44 6 81
12 83 14 1 1 -3 14 -9 29 -8 17 -21 26 -38 27 -24 2 -25 2 -3 6 13 3 22 8 20
12 -2 4 -25 58 -52 119 l-50 112 -162 0 c-150 0 -261 13 -274 32 -3 4 -35 11
-70 16 l-65 10 49 1 c28 0 92 9 144 18 109 19 170 10 210 -33 20 -21 32 -24
87 -24 36 0 65 3 65 6 0 10 -91 219 -99 227 -4 4 -48 -9 -97 -29 -161 -65
-189 -76 -179 -66 6 4 62 30 125 56 157 64 147 54 120 120 -23 56 -24 56 -66
56 -26 0 -62 -10 -94 -27 -77 -40 -146 -42 -216 -8 -30 15 -52 30 -49 33 4 4
34 14 68 24 46 12 74 14 112 8 27 -5 87 -11 132 -14 82 -6 82 -6 74 16 -11 30
-19 33 -146 53 -60 10 -122 20 -137 23 -20 3 -33 -3 -55 -28 l-28 -32 -85 5
c-47 3 -93 9 -103 12 -15 6 -16 4 -7 -20 13 -34 151 -349 155 -353 1 -2 31 8
66 22 85 35 87 32 6 -10 l-67 -34 19 -38 c10 -20 22 -47 25 -59 l7 -23 -278 0
c-153 0 -298 -5 -323 -10 -99 -22 -97 -22 -78 -7 21 16 48 77 48 107 0 11 4
20 9 20 15 0 22 33 9 42 -10 6 -9 8 4 8 13 0 55 59 46 65 -2 0 -16 6 -31 13
-43 19 -32 46 21 52 42 5 44 6 71 70 16 36 51 115 79 176 l50 112 -37 6 c-48
8 -74 7 -87 -2z m616 -452 c-8 -5 -19 -10 -25 -10 -5 0 -3 5 5 10 8 5 20 10
25 10 6 0 3 -5 -5 -10z m469 -394 c-2 -2 -26 -6 -54 -9 -34 -4 -42 -3 -25 3
25 8 87 13 79 6z m-146 -23 c-7 -2 -19 -2 -25 0 -7 3 -2 5 12 5 14 0 19 -2 13
-5z m-55 -10 c-10 -2 -26 -2 -35 0 -10 3 -2 5 17 5 19 0 27 -2 18 -5z m47 -53
c-38 -4 -99 -7 -135 -7 l-65 1 75 6 c41 4 102 6 135 7 l60 0 -70 -7z m278
-207 c-13 -2 -33 -2 -45 0 -13 2 -3 4 22 4 25 0 35 -2 23 -4z"/>
<path d="M10235 4620 c-3 -5 -3 -15 1 -21 6 -11 23 6 24 24 0 10 -18 9 -25 -3z"/>
<path d="M10042 4303 c-41 -4 -45 -7 -64 -49 -11 -25 -17 -48 -14 -51 3 -3 -1
-12 -9 -20 -23 -23 -18 -38 19 -56 19 -9 37 -26 41 -38 9 -28 10 -26 69 115
50 119 55 107 -42 99z"/>
<path d="M11765 4290 c-5 -9 10 -44 37 -82 9 -13 9 -20 -2 -32 -11 -15 -15
-12 -31 25 -11 23 -19 47 -19 54 0 7 -7 18 -15 25 -13 11 -15 -2 -15 -106 l1
-119 34 -25 c19 -14 35 -28 35 -32 0 -4 -15 -11 -32 -16 -26 -6 -34 -14 -36
-35 l-3 -27 80 0 c95 0 95 0 52 93 -38 83 -43 101 -35 132 5 21 11 26 33 23
22 -3 26 -7 23 -30 -2 -22 1 -28 18 -28 11 0 20 6 21 13 5 94 7 88 -46 122
-76 49 -93 56 -100 45z"/>
<path d="M2206 4272 c-3 -4 15 -19 39 -32 l45 -24 62 31 63 32 -102 0 c-56 1
-104 -3 -107 -7z"/>
<path d="M2386 4245 c-37 -19 -70 -36 -73 -39 -3 -2 80 -47 184 -100 280 -141
383 -215 441 -316 14 -25 27 -46 28 -48 7 -11 49 26 49 43 0 15 8 21 34 23 21
2 31 0 26 -7 -13 -22 24 -10 81 27 32 21 90 55 127 76 48 27 67 43 63 53 -3 8
-6 19 -6 24 0 4 -17 18 -37 29 l-38 21 33 -7 c29 -5 33 -3 30 13 -3 13 -11 17
-33 15 -16 -2 -32 -7 -35 -12 -6 -10 -160 37 -160 49 0 5 14 11 31 15 45 9 61
8 54 -4 -4 -6 18 -10 59 -10 54 0 64 3 60 15 -4 8 -16 16 -28 16 -16 1 -17 2
-3 6 24 6 22 13 -25 85 l-43 63 -170 0 c-93 0 -181 -1 -195 -2 -14 0 -106 1
-205 3 l-180 3 -69 -34z m619 -62 c54 -27 85 -51 85 -65 0 -5 -15 2 -32 15
-18 14 -75 46 -125 71 -51 25 -93 48 -93 51 0 5 97 -37 165 -72z m-271 -13
c12 -12 -69 -60 -102 -60 -16 0 -52 7 -82 16 l-53 16 21 21 c13 13 40 23 69
27 49 6 131 -6 147 -20z m499 -57 c-7 -2 -19 -2 -25 0 -7 3 -2 5 12 5 14 0 19
-2 13 -5z m-285 -15 c7 -7 38 -13 72 -13 33 0 52 -3 43 -7 -10 -3 -43 -7 -73
-7 -45 -1 -58 3 -68 19 -10 16 -10 20 1 20 7 0 19 -6 25 -12z m110 -61 c39
-18 39 -43 1 -63 -57 -29 -239 -6 -239 31 0 47 162 69 238 32z"/>
<path d="M4135 4239 c-27 -11 -147 -56 -265 -101 -118 -44 -217 -82 -219 -84
-2 -2 7 -40 20 -85 l23 -81 76 -44 c122 -71 123 -81 1 -19 -36 18 -51 21 -51
12 0 -15 90 -169 124 -211 12 -16 33 -30 47 -31 13 -1 30 -3 37 -4 6 0 12 -12
12 -25 0 -13 -6 -26 -12 -29 -7 -2 4 -11 25 -20 20 -9 37 -23 37 -31 0 -36
116 -105 170 -100 19 2 125 3 236 4 110 1 206 5 212 9 8 5 -2 14 -30 27 -55
24 -224 191 -220 216 3 15 -4 18 -50 18 -59 0 -98 8 -98 20 0 4 23 17 50 29
28 12 50 26 50 31 0 25 -22 60 -37 60 -15 0 -15 2 -4 9 12 8 12 18 -3 71 -23
80 -56 271 -56 320 0 54 -15 62 -75 39z m59 -192 c32 -23 -6 -42 -96 -46 -105
-4 -238 8 -216 20 61 34 277 52 312 26z m-29 -188 c25 -6 50 -17 56 -25 13
-16 -14 -29 -99 -47 -49 -10 -55 -10 -68 7 -9 14 -32 21 -76 26 l-63 6 55 16
c103 31 130 33 195 17z m42 -75 c-3 -3 -12 -4 -19 -1 -8 3 -5 6 6 6 11 1 17
-2 13 -5z m-40 -10 c-3 -3 -12 -4 -19 -1 -8 3 -5 6 6 6 11 1 17 -2 13 -5z
m-40 -10 c-3 -3 -12 -4 -19 -1 -8 3 -5 6 6 6 11 1 17 -2 13 -5z m-69 -17 c-46
-13 -47 -21 -5 -44 24 -12 28 -18 15 -21 -9 -2 -26 6 -38 18 -18 18 -29 21
-58 15 -34 -6 -35 -5 -17 8 22 16 89 35 120 35 11 0 3 -5 -17 -11z m125 -111
c8 -21 -3 -56 -18 -56 -7 0 -18 7 -25 15 -10 13 -10 19 5 35 21 24 31 25 38 6z
m157 -16 c0 -6 -19 -7 -47 -3 -65 8 -67 13 -5 13 29 0 52 -4 52 -10z m-259
-41 c-25 -20 -71 -26 -71 -9 0 6 9 10 19 10 11 0 23 9 26 20 5 17 10 18 28 9
l21 -12 -23 -18z m194 -138 c18 -7 17 -8 -7 -14 -31 -8 -159 -7 -172 1 -30 18
136 30 179 13z"/>
<path d="M10805 4230 c-4 -6 6 -10 22 -10 22 0 25 2 13 10 -19 12 -27 12 -35
0z"/>
<path d="M11888 4086 c-24 -17 -23 -74 1 -105 l19 -25 3 58 c5 74 0 89 -23 72z"/>
<path d="M8660 4030 l0 -30 66 0 c56 0 65 2 60 16 -3 9 -6 22 -6 30 0 10 -15
14 -60 14 l-60 0 0 -30z"/>
<path d="M8660 3980 c0 -5 6 -10 13 -10 9 0 9 -2 -1 -9 -9 -5 -13 -29 -11 -79
l2 -72 56 5 56 4 -55 -12 -55 -12 -3 -93 -4 -93 57 5 c31 2 58 6 61 9 3 2 6
83 6 178 l2 174 -45 -2 c-32 -2 -39 0 -24 7 16 7 13 9 -17 9 -21 1 -38 -3 -38
-9z"/>
<path d="M1810 3931 c0 -38 1 -39 41 -46 50 -9 47 -30 -5 -29 l-36 1 0 -118
c0 -100 2 -119 15 -119 17 0 167 39 173 45 2 2 -12 36 -31 77 -19 40 -46 108
-59 151 l-23 77 -37 0 c-37 0 -38 -1 -38 -39z"/>
<path d="M9901 3918 c-70 -27 -145 -71 -301 -176 -69 -46 -127 -86 -129 -88
-2 -2 1 -14 7 -27 6 -12 20 -44 31 -71 16 -36 25 -47 37 -42 40 15 160 92 214
137 47 39 65 48 83 44 22 -6 28 2 76 113 28 66 51 123 51 126 0 9 -11 7 -69
-16z"/>
<path d="M3237 3861 c-49 -32 -106 -67 -128 -76 -21 -10 -39 -21 -39 -24 0 -3
23 -19 50 -34 46 -26 64 -47 40 -47 -19 0 -50 -40 -50 -65 0 -41 -33 -63 -88
-58 l-47 4 -22 -50 -21 -50 31 4 c32 5 32 5 -4 -8 -19 -6 -55 -29 -80 -50 -58
-51 -102 -73 -177 -88 l-62 -13 -1 -46 c-1 -25 -1 -49 0 -53 1 -5 -4 -7 -11
-5 -7 3 -15 26 -18 52 -5 48 -5 48 -45 52 -22 2 -59 6 -82 9 -29 4 -68 -1
-123 -16 -45 -12 -83 -19 -86 -16 -3 2 27 12 66 22 38 9 70 19 70 21 0 7 -111
54 -126 54 -18 0 -144 -62 -144 -71 0 -12 63 -33 94 -31 21 1 27 -1 17 -7 -20
-13 82 -45 106 -33 10 5 41 13 68 16 60 8 98 -9 103 -43 4 -24 4 -24 108 -18
58 4 142 16 187 28 90 23 213 82 267 129 35 29 35 29 10 30 -14 1 -38 7 -55
15 -29 14 -27 15 38 11 l68 -4 37 40 c20 22 44 51 52 66 8 14 22 34 30 43 8
10 28 50 44 91 22 57 29 95 34 176 4 83 2 102 -9 102 -8 0 -54 -27 -102 -59z
m-90 -357 c-3 -3 -12 -4 -19 -1 -8 3 -5 6 6 6 11 1 17 -2 13 -5z m-40 -10 c-3
-3 -12 -4 -19 -1 -8 3 -5 6 6 6 11 1 17 -2 13 -5z m-40 -10 c-3 -3 -12 -4 -19
-1 -8 3 -5 6 6 6 11 1 17 -2 13 -5z m-40 -10 c-3 -3 -12 -4 -19 -1 -8 3 -5 6
6 6 11 1 17 -2 13 -5z m-3 -100 c24 -23 20 -44 -8 -44 -30 0 -40 13 -31 40 8
24 18 25 39 4z m-121 -22 c8 -11 -31 -54 -43 -47 -5 3 -10 17 -10 31 0 19 5
24 24 24 14 0 27 -3 29 -8z"/>
<path d="M1050 3735 c0 -126 2 -175 11 -175 8 0 9 -12 4 -37 -4 -21 -10 -181
-12 -356 l-4 -319 31 22 c41 29 79 91 89 144 9 50 -7 126 -34 156 -22 24 -15
35 19 26 47 -12 58 -33 54 -105 -5 -84 -28 -131 -100 -206 -32 -32 -58 -61
-58 -63 0 -2 12 -1 28 2 26 6 26 6 8 -9 -11 -8 -23 -15 -28 -15 -4 0 -8 -13
-8 -30 l0 -30 326 0 327 0 41 34 c69 56 122 78 188 78 33 0 62 -3 65 -6 4 -3
-25 -6 -63 -7 l-69 0 51 -23 c28 -13 59 -34 68 -47 16 -24 19 -24 234 -29
l217 -5 -113 -9 c-77 -5 -112 -12 -109 -20 2 -7 34 -12 83 -13 43 0 70 1 59 4
-51 13 -34 23 36 22 40 -1 66 -3 57 -6 -10 -2 -18 -9 -18 -14 0 -10 123 -11
190 -1 58 9 40 21 -48 32 -67 7 -67 7 -17 9 l50 2 -81 17 c-86 18 -146 54
-166 98 l-11 24 -374 0 c-253 0 -373 -3 -373 -10 0 -7 -13 -8 -35 -4 -20 3
-99 9 -177 13 l-141 6 2 223 c0 122 -2 222 -5 222 -3 0 -20 -10 -37 -22 -30
-20 -30 -19 6 19 l39 40 -4 148 c-2 107 -6 150 -15 153 -7 2 -13 9 -13 15 0
29 -63 135 -107 179 -26 26 -50 48 -54 48 -4 0 -8 -79 -9 -175z m90 -889 c0
-2 -7 -7 -16 -10 -8 -3 -12 -2 -9 4 6 10 25 14 25 6z"/>
<path d="M11720 3818 c0 -32 4 -39 25 -44 14 -3 25 -10 25 -15 0 -5 -11 -11
-25 -15 -24 -6 -25 -10 -25 -80 0 -53 4 -74 13 -74 18 0 167 37 173 42 6 6 8
50 6 148 l-2 76 -95 -1 -95 0 0 -37z m140 15 c-8 -3 -20 -11 -25 -18 -6 -7
-33 -16 -59 -20 -39 -6 -48 -5 -44 6 6 18 63 38 108 38 19 0 28 -3 20 -6z"/>
<path d="M6393 3794 c-6 -17 12 -64 26 -64 13 0 29 22 36 53 7 25 5 27 -24 27
-19 0 -34 -6 -38 -16z"/>
<path d="M12630 3790 c-45 -14 -51 -19 -35 -25 75 -30 86 -36 83 -47 -8 -24
-80 -39 -190 -39 -59 0 -112 2 -117 6 -19 11 -20 -13 -1 -30 36 -32 24 -38
-65 -30 l-85 7 0 -110 c0 -102 1 -110 20 -115 11 -3 19 -11 18 -17 -2 -7 18
-20 43 -29 104 -36 98 -71 -12 -71 l-69 0 1 -285 0 -285 22 0 c12 0 35 7 50
15 26 13 37 13 99 0 102 -21 130 -40 165 -113 0 -2 35 11 77 28 l76 32 0 199
0 200 -32 -17 c-20 -10 -58 -18 -93 -18 l-60 -1 -3 38 -3 39 63 -5 c35 -2 78
-9 96 -15 l32 -11 0 360 c0 281 -3 359 -12 358 -7 -1 -38 -9 -68 -19z m-11
-251 c43 -15 41 -44 -4 -59 -47 -16 -107 -15 -134 1 -66 41 48 89 138 58z
m-65 -648 c14 -21 -23 -44 -78 -49 -47 -4 -56 -2 -56 12 0 9 -7 19 -16 23 -13
5 -13 7 -2 14 17 11 145 12 152 0z"/>
<path d="M6317 3776 c-3 -8 -1 -17 6 -20 7 -2 6 -5 -4 -5 -9 -1 -21 -12 -27
-25 -10 -22 -8 -24 20 -30 46 -9 58 -7 58 8 0 8 -7 22 -16 30 -14 15 -14 16 1
16 24 0 14 34 -11 38 -12 2 -24 -4 -27 -12z"/>
<path d="M5613 3688 c-53 -54 -66 -75 -38 -65 8 4 17 2 20 -3 4 -6 -9 -10 -29
-10 -35 0 -49 -14 -23 -23 6 -2 3 -3 -7 -1 -12 2 -46 -18 -87 -52 -37 -30 -91
-68 -121 -85 -51 -29 -52 -29 -18 -25 19 3 82 10 139 17 101 11 106 13 148 52
31 28 40 43 33 52 -7 8 -3 11 13 11 25 -1 36 36 17 59 -8 9 -8 14 0 17 7 2 10
24 8 56 l-3 53 -52 -53z"/>
<path d="M2974 3704 c3 -9 6 -25 6 -37 0 -16 3 -18 11 -10 14 14 4 63 -12 63
-6 0 -8 -7 -5 -16z"/>
<path d="M6400 3688 c0 -19 2 -20 10 -8 13 19 13 30 0 30 -5 0 -10 -10 -10
-22z"/>
<path d="M9700 3588 c-176 -101 -168 -88 -119 -201 16 -40 37 -89 46 -109 28
-67 45 -52 110 99 32 75 60 141 62 146 2 5 -12 7 -30 4 -33 -6 -33 -6 3 5 34
10 40 18 63 77 13 35 24 66 22 67 -1 1 -72 -38 -157 -88z m-13 -84 c-3 -3 -12
-4 -19 -1 -8 3 -5 6 6 6 11 1 17 -2 13 -5z"/>
<path d="M6240 3612 c0 -4 5 -13 12 -20 9 -9 9 -12 -1 -12 -9 0 -11 -8 -7 -24
3 -14 2 -27 -3 -30 -5 -3 -7 -20 -5 -38 1 -18 3 -39 3 -46 1 -10 16 -13 59
-10 l57 4 1 62 c0 34 3 65 7 68 4 4 -1 13 -11 20 -16 12 -16 13 3 14 17 0 17
2 5 10 -18 12 -120 13 -120 2z m88 -59 c-10 -2 -26 -2 -35 0 -10 3 -2 5 17 5
19 0 27 -2 18 -5z"/>
<path d="M8693 3602 c-29 -3 -33 -7 -33 -34 0 -25 3 -29 18 -23 9 4 36 15 60
23 23 8 42 18 42 22 0 10 -45 16 -87 12z"/>
<path d="M11793 3592 l-73 -16 0 -68 0 -68 40 0 40 0 0 -64 c0 -63 0 -64 31
-70 36 -7 94 -6 67 1 -28 7 -34 44 -9 64 18 15 21 28 21 92 l0 76 -52 -5 c-29
-3 -60 0 -68 5 -25 17 5 35 68 41 31 3 56 10 55 15 -4 16 -41 15 -120 -3z"/>
<path d="M8770 3536 c0 -38 -12 -46 -70 -46 -21 0 -41 -4 -45 -9 -5 -9 95
-112 116 -119 6 -2 21 7 35 21 l25 25 -21 34 c-12 21 -20 50 -20 81 0 26 -4
47 -10 47 -5 0 -10 -15 -10 -34z"/>
<path d="M2016 3534 c-27 -14 -72 -28 -101 -31 -48 -5 -54 -3 -78 23 l-27 29
0 -110 0 -110 59 -32 c50 -26 62 -29 71 -18 18 22 81 39 132 37 37 -2 62 5
124 36 l77 39 -35 20 c-19 11 -64 48 -100 82 -36 33 -67 61 -69 61 -2 -1 -26
-12 -53 -26z"/>
<path d="M7424 3527 c-2 -7 2 -31 9 -52 8 -22 13 -50 12 -62 -2 -29 -1 -29 46
5 44 31 56 56 38 78 -26 31 -96 52 -105 31z"/>
<path d="M6180 3495 c0 -9 6 -12 15 -9 8 4 12 10 9 15 -8 14 -24 10 -24 -6z"/>
<path d="M6120 3418 c-25 -29 -44 -56 -42 -61 1 -5 -2 -6 -8 -2 -6 4 -21 0
-33 -8 -12 -7 -46 -22 -74 -31 -40 -13 -53 -23 -53 -37 0 -16 7 -19 46 -19 25
0 64 -5 87 -10 23 -6 83 -10 132 -8 l90 3 -87 48 c-49 27 -88 50 -88 52 0 6
67 -23 154 -67 l78 -39 102 5 c178 9 216 15 216 37 0 20 0 20 -120 38 -58 9
-84 19 -112 41 -36 29 -39 30 -100 21 -35 -5 -71 -12 -80 -16 -16 -6 -18 0
-18 49 0 51 -2 56 -22 56 -15 0 -39 -18 -68 -52z"/>
<path d="M5335 3413 c-49 -7 -124 -22 -165 -33 -110 -28 -122 -30 -280 -35
-80 -3 -165 -9 -190 -14 -40 -8 -36 -9 42 -10 82 -1 89 -3 122 -31 19 -17 38
-45 41 -62 l7 -31 67 7 c88 8 248 48 318 81 63 29 213 125 213 137 0 11 -70 8
-175 -9z"/>
<path d="M11005 3410 c-17 -7 -16 -9 10 -9 17 0 37 4 45 9 12 8 10 10 -10 9
-14 0 -34 -4 -45 -9z"/>
<path d="M4140 3368 c0 -19 69 -42 125 -41 57 0 58 0 15 -6 l-45 -7 38 -17
c122 -53 308 -93 489 -104 92 -5 108 -4 113 10 13 33 -66 108 -111 106 -14 0
-11 -4 11 -14 l30 -13 -25 -7 c-14 -3 -70 -5 -125 -3 -95 3 -100 4 -103 26 -3
21 -7 22 -110 23 -84 1 -98 3 -67 10 22 4 90 8 151 8 61 1 147 4 190 8 l79 6
-55 14 c-40 9 -128 12 -327 10 -150 -1 -273 -5 -273 -9z"/>
<path d="M8070 3347 c0 -19 10 -49 23 -68 22 -32 26 -34 90 -37 l67 -3 0 30
c0 31 -4 33 -67 46 -17 3 -50 20 -72 36 l-41 29 0 -33z"/>
<path d="M8822 3364 c-12 -8 -22 -22 -22 -31 0 -13 8 -14 48 -8 26 4 49 9 51
11 4 4 -40 43 -49 44 -3 0 -16 -7 -28 -16z"/>
<path d="M8450 3310 c-14 -4 -42 -8 -62 -9 -32 -1 -38 -5 -38 -22 0 -17 4 -20
23 -15 12 4 53 15 92 25 57 14 65 19 45 24 -28 8 -27 8 -60 -3z"/>
<path d="M8934 3313 c-13 -10 -13 -65 1 -70 6 -1 44 3 85 10 54 9 76 16 78 28
2 13 -9 18 -49 23 -28 4 -64 9 -78 12 -14 2 -31 1 -37 -3z"/>
<path d="M11190 3312 c0 -3 11 -20 26 -39 23 -31 29 -33 85 -33 59 0 59 0 59
30 0 29 -1 30 -47 30 -27 0 -65 4 -85 9 -21 5 -38 6 -38 3z"/>
<path d="M7248 3302 c-57 -3 -58 -4 -58 -32 l0 -30 180 0 c99 0 180 2 180 5 0
2 -19 15 -42 29 -45 25 -131 35 -260 28z"/>
<path d="M11720 3160 l0 -139 38 -6 c66 -11 117 -31 117 -46 0 -20 -63 -49
-108 -49 -30 0 -40 -4 -44 -20 -5 -19 -14 -20 -241 -20 -210 0 -236 -2 -247
-17 -11 -15 -29 -17 -124 -15 -169 4 -189 6 -188 17 1 6 -125 11 -358 12 -207
1 -351 -2 -340 -7 11 -4 47 -17 80 -27 40 -12 61 -24 63 -35 3 -16 -7 -18
-107 -18 -67 0 -111 4 -111 10 0 17 -36 11 -55 -10 -10 -11 -16 -22 -14 -24 2
-2 50 -13 107 -25 56 -12 130 -28 165 -36 79 -19 397 -21 415 -3 6 6 22 12 34
13 13 1 50 6 83 10 50 6 58 5 48 -6 -24 -24 -13 -29 67 -29 73 0 80 2 80 20 0
18 7 20 63 20 50 0 66 -4 80 -20 16 -19 27 -20 239 -18 l222 3 18 55 c14 48
17 51 17 23 1 -17 -3 -43 -9 -57 l-10 -26 105 0 c98 0 105 1 105 20 0 15 -7
20 -29 20 -16 0 -35 7 -42 16 -11 14 -10 18 6 30 10 8 29 14 42 14 26 0 25 -6
24 213 0 94 -1 100 -27 124 -22 20 -24 27 -13 34 8 5 20 9 27 9 7 0 12 15 12
41 l0 42 -53 -7 c-48 -5 -56 -3 -76 18 -13 13 -31 26 -42 29 -18 5 -19 -2 -19
-133z m-880 -314 c101 -16 158 -35 179 -60 11 -13 9 -17 -15 -27 -34 -13 -176
-18 -219 -8 -16 4 -51 10 -77 14 -48 6 -48 7 -48 44 0 21 3 41 7 44 10 11 70
8 173 -7z"/>
<path d="M8805 3267 l-60 -22 64 -3 c71 -3 66 -5 75 26 9 27 0 27 -79 -1z"/>
<path d="M2710 2836 c0 -25 -4 -56 -10 -70 l-10 -26 168 -1 167 -2 -145 -13
c-80 -7 -154 -13 -165 -13 -17 -1 -18 -3 -5 -11 9 -6 174 -10 425 -9 287 0
405 3 392 10 -10 6 -25 8 -33 5 -8 -3 -14 -2 -14 3 0 4 -33 13 -72 18 l-73 10
78 2 c52 1 76 5 72 12 -4 5 -47 37 -97 70 l-89 59 -295 0 -294 0 0 -44z m380
-33 c-1 -5 -9 -18 -19 -30 -16 -19 -29 -23 -80 -23 l-61 0 0 30 0 30 80 0 c44
0 80 -3 80 -7z"/>
<path d="M3340 2876 c0 -2 24 -19 53 -37 28 -19 70 -50 91 -69 21 -19 41 -34
42 -32 2 1 19 1 37 1 23 -1 26 -3 10 -6 -26 -5 -31 -28 -7 -37 28 -11 782 -7
789 4 3 6 12 10 18 10 7 0 6 -4 -3 -10 -10 -6 207 -9 620 -9 589 1 630 3 560
16 -76 15 -223 18 -1555 25 l-400 3 359 2 c336 3 358 4 350 21 -4 9 -9 33 -12
53 l-4 36 69 15 68 15 -160 0 c-88 0 -143 -2 -122 -4 32 -4 37 -8 37 -29 0
-34 -20 -52 -72 -63 -49 -12 -218 -14 -360 -4 l-98 6 3 31 c2 33 3 33 -70 35
-23 0 -48 8 -57 16 -11 11 -37 15 -100 15 -47 0 -86 -2 -86 -4z"/>
<path d="M4719 2878 c0 -2 -2 -11 -4 -21 -5 -25 3 -22 -113 -56 -57 -17 -113
-37 -125 -46 -19 -14 25 -15 451 -15 455 0 474 1 500 20 52 37 146 54 302 54
118 0 151 -3 178 -18 26 -14 40 -15 65 -7 18 5 61 15 97 21 109 18 110 18 110
46 l0 25 -342 -4 c-189 -2 -354 -6 -368 -10 -20 -6 -21 -6 -5 2 13 6 -113 10
-362 10 -211 1 -383 0 -384 -1z m656 -38 c-38 -10 -79 -18 -90 -18 -11 0 12 8
50 18 39 10 79 18 90 18 11 0 -11 -8 -50 -18z m-116 -24 c-7 -7 -219 -36 -257
-35 -20 1 10 8 68 15 58 7 112 15 120 18 20 5 74 7 69 2z"/>
<path d="M6210 2861 c0 -25 -2 -25 133 -5 l108 17 107 -33 c59 -19 117 -40
130 -48 26 -17 31 -47 5 -38 -37 15 -171 26 -232 20 -47 -5 -62 -4 -57 4 5 9
-20 12 -93 12 l-101 0 0 -26 c0 -24 3 -26 28 -20 65 15 94 15 42 0 -65 -18
-62 -17 -54 -38 6 -15 61 -16 630 -16 533 0 630 2 661 15 19 8 39 15 44 15 5
0 9 -7 9 -15 0 -13 44 -15 338 -15 220 0 342 4 348 10 8 8 19 7 39 0 37 -14
755 -13 734 1 -10 7 -7 8 11 2 20 -6 791 -10 825 -4 6 1 22 -1 37 -5 32 -7 78
2 78 16 0 6 -13 10 -30 10 -16 0 -30 4 -30 9 0 11 17 17 79 26 24 4 51 15 61
24 9 9 34 29 54 44 77 59 100 57 -629 57 -601 0 -668 -2 -700 -17 -19 -9 -35
-20 -35 -23 0 -4 31 -22 70 -41 71 -34 90 -51 29 -25 -19 8 -58 21 -87 30
l-53 15 -64 -55 c-64 -53 -65 -54 -84 -35 -12 12 -16 23 -10 32 15 24 10 65
-12 93 l-20 26 -235 0 c-231 0 -234 0 -222 -20 19 -30 -1 -42 -83 -48 l-72 -5
5 37 4 37 -340 -5 c-188 -2 -352 -5 -366 -5 -14 0 -244 2 -512 5 -487 5 -488
5 -488 -15z m610 -12 c-41 -10 -93 -18 -115 -18 -32 1 -23 5 45 19 114 24 165
24 70 -1z m1041 -15 c14 -7 31 -20 38 -28 12 -14 6 -16 -53 -16 l-66 0 0 35
c0 34 1 35 28 29 15 -4 39 -13 53 -20z m-365 -45 c18 -15 16 -16 -164 -35 -59
-6 -64 -5 -60 12 2 11 18 24 38 32 44 15 164 10 186 -9z m-1119 -25 c-3 -3
-12 -4 -19 -1 -8 3 -5 6 6 6 11 1 17 -2 13 -5z m2438 -3 c73 -15 1 -57 -81
-46 -57 7 -64 14 -38 39 16 16 63 19 119 7z"/>
<path d="M8640 2865 c0 -8 -6 -12 -14 -9 -16 6 -30 -46 -16 -60 13 -13 60 10
60 28 0 8 14 17 33 20 17 4 46 13 62 21 29 13 26 13 -47 14 -62 1 -78 -2 -78
-14z"/>
<path d="M5810 2733 c-16 -6 -30 -23 -30 -35 0 -5 46 -7 103 -7 99 1 100 2 42
10 -35 5 -63 15 -68 24 -8 15 -21 18 -47 8z"/>
<path d="M1050 2710 c0 -20 7 -20 286 -20 271 0 287 1 311 20 l26 20 -312 0
c-304 0 -311 0 -311 -20z"/>
<path d="M1941 2710 l-23 -20 45 0 c30 0 49 5 54 14 5 10 29 16 68 19 47 2 40
4 -30 5 -76 1 -94 -2 -114 -18z"/>
<path d="M10020 2705 c-23 -13 -12 -14 108 -15 120 0 158 8 116 24 -32 12
-198 6 -224 -9z"/>
<path d="M10775 2700 c-3 -5 -1 -10 4 -10 6 0 11 5 11 10 0 6 -2 10 -4 10 -3
0 -8 -4 -11 -10z"/>
<path d="M2558 2393 c7 -3 16 -2 19 1 4 3 -2 6 -13 5 -11 0 -14 -3 -6 -6z"/>
</g>
</svg>
