<?xml version="1.0" standalone="no"?>
<!DOCTYPE svg PUBLIC "-//W3C//DTD SVG 20010904//EN"
 "http://www.w3.org/TR/2001/REC-SVG-20010904/DTD/svg10.dtd">
<svg version="1.0" xmlns="http://www.w3.org/2000/svg"
width="235.000000pt" height="214.000000pt" viewBox="0 0 840.000000 411.000000"
 preserveAspectRatio="xMidYMid meet">

<g transform="translate(0.000000,411.000000) scale(0.100000,-0.100000)"
fill="#000000" stroke="none">
<path d="M5048 3637 c-264 -99 -339 -410 -146 -606 183 -186 489 -125 601 119
16 34 21 67 21 135 1 79 -3 98 -28 152 -34 74 -113 154 -183 185 -60 27 -209
35 -265 15z m243 -196 c16 -16 29 -37 29 -45 0 -23 -37 -20 -50 4 -10 19 -19
21 -83 18 l-72 -3 -3 -47 -3 -48 110 0 111 0 0 -115 0 -115 -140 0 -140 0 1
108 c2 241 18 272 140 272 65 0 73 -2 100 -29z"/>
<path d="M5144 3235 c-9 -14 -13 -32 -9 -45 15 -47 86 -50 107 -5 27 59 -62
105 -98 50z m61 -5 c8 -13 -3 -50 -15 -50 -12 0 -23 37 -15 50 3 5 10 10 15
10 5 0 12 -5 15 -10z"/>
<path d="M3207 3579 c-35 -26 -150 -66 -216 -75 l-50 -6 -7 -44 c-8 -56 9
-176 36 -248 41 -107 144 -233 238 -289 l30 -17 63 42 c109 73 201 210 229
338 6 30 10 90 8 134 l-3 78 -90 23 c-88 22 -180 59 -191 76 -8 13 -16 11 -47
-12z m122 -124 c34 -17 41 -33 41 -91 0 -24 5 -44 10 -44 7 0 10 -40 8 -112
l-3 -113 -140 0 -140 0 1 140 c1 154 15 208 56 225 36 14 136 12 167 -5z"/>
<path d="M3167 3413 c-4 -3 -7 -26 -7 -50 l0 -43 85 0 85 0 0 38 c0 21 -5 43
-12 50 -13 13 -140 17 -151 5z"/>
<path d="M3202 3248 c-18 -18 -14 -63 6 -81 52 -47 126 28 76 77 -18 19 -65
21 -82 4z m60 -20 c3 -7 -1 -24 -8 -38 l-13 -24 -11 28 c-5 15 -8 32 -4 37 8
13 31 11 36 -3z"/>
<path d="M2399 2787 c-20 -8 -54 -25 -75 -38 -22 -13 -42 -23 -47 -21 -4 1
-13 -10 -19 -25 -7 -16 -17 -31 -23 -35 -5 -4 -7 -8 -2 -8 4 0 -4 -17 -18 -38
-13 -20 -27 -51 -31 -69 -8 -41 18 -128 56 -184 17 -25 32 -64 36 -91 4 -26
10 -45 15 -42 5 3 9 -1 9 -8 0 -7 5 -5 11 6 9 14 13 15 19 5 6 -9 10 -6 15 13
9 36 0 60 -41 109 -41 50 -45 89 -9 124 24 24 68 33 90 17 6 -4 17 -26 23 -49
7 -24 24 -55 38 -70 14 -16 23 -21 20 -13 -23 68 -29 91 -25 94 11 9 181 -20
189 -33 6 -11 9 -8 12 10 2 19 10 25 33 27 46 4 59 -10 51 -52 -4 -21 -16 -46
-27 -57 -10 -10 -15 -19 -10 -19 16 0 52 58 58 93 5 32 3 34 -27 41 -18 3 -56
6 -85 6 -28 0 -86 3 -128 6 -65 6 -76 10 -81 28 -10 37 17 51 92 48 120 -5
241 42 282 111 l20 32 -48 7 c-27 4 -89 23 -139 42 -107 42 -182 52 -234 33z"/>
<path d="M5845 2775 c-22 -7 -70 -24 -108 -39 -37 -14 -83 -26 -102 -26 -45 0
-46 -19 -1 -64 53 -52 133 -79 244 -80 78 -1 95 -4 103 -19 6 -10 8 -26 4 -36
-4 -15 -20 -19 -82 -25 -42 -3 -100 -6 -128 -6 -29 0 -67 -3 -85 -6 -30 -7
-31 -8 -25 -43 7 -37 40 -91 56 -91 5 0 0 9 -10 19 -11 11 -23 36 -27 57 -8
42 5 56 51 52 22 -2 31 -9 35 -28 5 -19 7 -21 12 -9 5 12 26 18 80 23 40 4 82
10 92 13 17 5 18 1 13 -28 -3 -19 -8 -43 -12 -54 -13 -43 30 28 46 74 15 44
18 46 56 49 32 2 46 -2 62 -19 29 -32 28 -89 -3 -118 -39 -37 -60 -84 -51
-117 7 -26 8 -27 15 -9 5 11 9 15 9 10 1 -6 10 -11 20 -11 14 0 20 9 24 39 3
21 17 57 32 79 61 92 72 190 30 252 -14 21 -23 42 -20 47 4 5 2 9 -3 9 -5 0
-14 10 -20 23 -6 12 -11 16 -11 8 -1 -8 -9 -4 -21 12 -11 14 -43 37 -72 51
-59 29 -135 34 -203 11z"/>
<path d="M2631 2379 c-1 -19 26 -45 36 -35 3 3 1 6 -6 6 -6 0 -16 10 -21 23
-6 15 -9 17 -9 6z"/>
<path d="M5770 2377 c0 -9 -8 -21 -17 -26 -16 -9 -17 -10 -1 -11 17 0 35 36
24 47 -3 4 -6 -1 -6 -10z"/>
<path d="M2140 2201 c-39 -74 31 -396 202 -925 l42 -129 51 -23 c27 -13 57
-24 66 -24 9 0 24 -11 33 -25 16 -24 20 -25 126 -25 60 0 111 -4 115 -9 3 -6
18 -6 38 0 17 5 89 9 159 9 70 0 129 4 132 9 3 4 38 11 77 15 40 3 78 11 86
17 9 9 17 8 29 -2 24 -20 79 -135 119 -250 55 -159 107 -289 117 -289 5 0 20
7 33 16 24 15 24 15 50 -36 l26 -52 42 7 c23 4 107 23 187 41 164 39 235 68
235 99 0 25 -31 32 -140 34 -136 2 -133 -3 -64 109 34 55 70 131 84 175 14 43
25 80 25 83 0 13 -25 -3 -86 -57 -38 -34 -82 -67 -97 -75 -27 -14 -27 -14 -22
8 5 19 -4 30 -47 64 -29 22 -128 109 -220 192 -91 83 -180 157 -196 166 -31
16 -88 26 -282 51 -178 23 -164 17 -184 80 -42 134 -134 181 -373 192 l-132 6
-45 136 c-24 75 -59 197 -75 271 -31 135 -44 160 -83 160 -9 0 -22 -9 -28 -19z
m443 -641 c95 -14 161 -50 198 -108 16 -26 28 -53 27 -60 -2 -8 -48 -28 -108
-46 -58 -18 -119 -40 -137 -49 l-32 -17 -27 58 c-45 93 -92 216 -87 224 6 11
84 10 166 -2z"/>
<path d="M6210 2210 c-8 -5 -22 -32 -30 -61 -15 -49 -16 -51 -27 -28 -6 13
-14 36 -17 52 -4 15 -13 27 -22 27 -8 0 -53 -18 -99 -40 -76 -36 -85 -44 -96
-78 -9 -31 -31 -52 -130 -127 -66 -49 -119 -94 -119 -100 0 -6 13 -31 29 -56
25 -41 27 -47 12 -56 -14 -9 -11 -16 22 -56 40 -49 40 -51 -13 -62 -97 -20
-161 -81 -191 -182 -14 -49 11 -41 -253 -78 -110 -15 -192 -32 -212 -42 -18
-10 -95 -75 -171 -144 -76 -70 -172 -155 -213 -190 -57 -48 -75 -69 -73 -86 2
-21 0 -22 -20 -11 -12 6 -57 41 -101 77 l-79 66 5 -35 c10 -61 47 -144 102
-236 30 -49 52 -91 50 -93 -3 -3 -57 -8 -120 -12 -88 -5 -120 -11 -133 -23
-15 -16 -14 -18 9 -36 13 -10 56 -28 95 -39 71 -21 347 -83 351 -78 1 1 9 18
19 37 30 60 34 62 65 40 21 -15 30 -17 37 -7 11 14 45 104 107 278 42 121 88
223 119 263 13 18 16 19 31 4 9 -10 43 -19 83 -23 38 -4 73 -11 78 -15 8 -6
261 -21 320 -19 225 9 230 9 250 33 11 13 41 29 67 36 26 7 56 21 67 31 32 30
174 484 236 754 31 133 43 272 26 303 -12 23 -36 28 -61 12z m-553 -926 c-3
-3 -12 -4 -19 -1 -8 3 -5 6 6 6 11 1 17 -2 13 -5z m-319 -11 c-10 -2 -28 -2
-40 0 -13 2 -5 4 17 4 22 1 32 -1 23 -4z m-328 -127 c0 -2 -8 -10 -17 -17 -16
-13 -17 -12 -4 4 13 16 21 21 21 13z m-100 -91 c-24 -25 -46 -45 -49 -45 -3 0
15 20 39 45 24 25 46 45 49 45 3 0 -15 -20 -39 -45z m-190 -189 c0 -2 -8 -10
-17 -17 -16 -13 -17 -12 -4 4 13 16 21 21 21 13z"/>
<path d="M3223 1728 c-2 -5 95 -8 217 -8 159 0 219 3 214 11 -7 13 -423 9
-431 -3z"/>
<path d="M4756 1731 c-5 -8 54 -11 215 -11 122 0 219 3 216 7 -13 12 -424 16
-431 4z"/>
<path d="M2763 836 c-21 -10 -23 -18 -25 -125 l-3 -115 -124 -22 c-133 -22
-155 -35 -149 -84 2 -20 8 -25 33 -25 21 0 33 6 39 21 8 17 27 23 115 37 132
21 166 21 292 0 89 -14 102 -19 110 -40 10 -26 49 -32 68 -9 13 16 5 62 -12
73 -7 4 -66 16 -132 28 l-120 21 -3 115 -3 116 -32 9 c-21 6 -40 6 -54 0z"/>
<path d="M5592 838 l-31 -8 -3 -117 -3 -117 -120 -21 c-66 -11 -125 -24 -131
-28 -18 -11 -26 -57 -13 -73 19 -23 58 -17 68 9 8 21 21 26 110 40 126 21 160
21 292 0 88 -14 107 -20 115 -37 6 -15 18 -21 39 -21 28 0 30 3 28 34 0 18 -6
38 -12 44 -5 5 -65 20 -133 32 l-123 21 -3 115 c-2 107 -4 115 -25 125 -14 6
-35 7 -55 2z"/>
<path d="M2761 512 c-14 -27 8 -55 40 -50 19 2 24 9 24 33 0 25 -4 31 -27 33
-18 2 -30 -3 -37 -16z"/>
<path d="M5584 516 c-10 -27 1 -51 26 -54 31 -5 53 23 39 49 -12 22 -57 25
-65 5z"/>
<path d="M3180 470 c0 -6 27 -10 60 -10 33 0 60 4 60 10 0 6 -27 10 -60 10
-33 0 -60 -4 -60 -10z"/>
<path d="M4840 470 c0 -6 27 -10 60 -10 33 0 60 4 60 10 0 6 -27 10 -60 10
-33 0 -60 -4 -60 -10z"/>
</g>
</svg>
